<?xml version="1.0" encoding="utf-8"?>
<!-- Generator: Adobe Illustrator 26.5.0, SVG Export Plug-In . SVG Version: 6.00 Build 0)  -->
<svg version="1.1" id="Layer_1" xmlns="http://www.w3.org/2000/svg" xmlns:xlink="http://www.w3.org/1999/xlink" x="0px" y="0px"
	 viewBox="0 0 595.28 595.28" style="enable-background:new 0 0 595.28 595.28;" xml:space="preserve">
<style type="text/css">
	.st0{fill:#108743;}
</style>
<g>
	<g>
		<path class="st0" d="M527.21,534.38c-0.16,0.63-0.47,1.26-0.63,1.74c-0.16,0.32-0.47,0.63-0.79,0.79l-9.94,4.73L505.27,547
			c-0.47,0.16-0.79,0.47-1.26,0.79c0-0.16,0-0.32,0-0.47c0.47-0.79,0.79-1.74,1.26-2.52c0.16-0.32,0.47-0.63,0.79-0.79l4.1-2.05
			c5.36-2.68,10.73-5.21,16.1-7.73l0.63-0.16c0.16-0.16,0.32-0.16,0.47,0L527.21,534.38z"/>
		<path class="st0" d="M393.4,511.03l0.47,0.47l0.63-0.79c0.79-0.95,1.74-1.89,2.68-2.68c1.26-0.95,2.68-1.74,4.26-1.89h0.47
			c1.26-0.16,2.68,0.47,3.31,1.58c0.79,1.26,1.42,2.52,1.89,3.79c0.79,2.37,1.1,4.73,1.42,7.1c0,0.63,0,1.26-0.32,1.74
			c-0.79,1.42-1.42,2.84-2.21,4.26c-0.47,0.79-0.47,0.79-1.42,0.63c-3.31-0.47-6.47-1.74-9.31-3.47c-1.26-0.79-2.37-1.74-3.31-3
			l-0.47-0.63l-0.32,0.32l-2.68,3.47c-1.1,1.58-2.21,2.84-3.47,4.1c-2.05,2.05-4.73,3.31-7.73,3.47c-1.58,0.16-3.16-0.16-4.42-0.79
			c-1.58-0.79-2.84-2.21-3.47-3.94c-0.32-0.95-0.63-1.74-0.79-2.68c0-0.16,0-0.47,0-0.63l-0.47,0.16c-0.79,0.47-1.58,0.95-2.37,1.58
			c-2.21,1.58-4.73,3-7.26,4.1c-0.32,0.16-0.63,0.47-0.63,0.79l-2.05,5.05c-0.47,1.1-0.79,2.21-0.95,3.31
			c-0.16,0.79,0,1.58,0.47,2.37c0.32,0.63,0.79,1.1,1.58,1.26c0.47,0.16,1.1,0,1.42-0.47c0,0,0,0,0-0.16
			c0.32-0.63,0.63-1.42,0.95-2.05c0-0.32,0.32-0.47,0.47-0.47c0,0,0,0.32,0,0.47c-0.16,2.05-0.95,3.94-2.21,5.52
			c-0.16,0.32-0.47,0.47-0.79,0.63c-0.79,0.63-2.05,0.47-2.68-0.32c-0.79-0.95-1.26-2.05-1.26-3.31c0-1.1,0.16-2.21,0.47-3.31
			c0.79-2.21,1.58-4.42,2.52-6.63c0.32-0.63,0.47-1.26,0.79-2.05h-0.47c-3.16,1.42-6.47,2.52-9.94,3.31
			c-2.21,0.47-4.58,0.95-6.94,1.1c-2.21,0.16-4.42,0.47-6.63,0.63c-2.21,0.16-3.94,0-5.84,0h-7.57h-7.1c-0.32,0-0.47,0.16-0.63,0.32
			l-1.89,3c-0.16,0.32-0.32,0.47-0.63,0.79c-0.16,0.16-0.32,0.32-0.47,0.32c-0.32,0-0.47,0-0.63-0.32c0-0.32,0-0.63,0-0.79
			c0.16-0.79,0.47-1.42,0.79-2.21c0.32-0.79,0.32-0.63,0.47-1.1l-6.63-0.47c0,0.16,0,0.32,0,0.32c-0.32,1.26-0.63,2.52-1.26,3.79
			c-0.47,1.26-1.1,2.68-1.58,3.94c-0.16,0.79-0.47,1.42-0.47,2.21c-0.16,0.79,0,1.74,0.32,2.37s0.95,1.26,1.74,1.42
			c0.47,0.16,1.1-0.16,1.26-0.63l0,0c0.32-0.63,0.47-1.26,0.79-1.89s0.16-0.47,0.63-0.63c0,0.16,0,0.32,0,0.32c0,0.16,0,0.47,0,0.63
			c-0.32,1.26-0.63,2.52-1.26,3.63c-0.32,0.47-0.79,1.1-1.1,1.58c-0.79,0.95-2.05,1.1-3,0.32c-0.16-0.16-0.47-0.47-0.63-0.63
			c-0.63-0.79-0.95-1.89-0.95-2.84c0-1.1,0.16-2.21,0.47-3.31c0.63-1.74,1.26-3.31,1.89-5.05c0.63-1.74,1.42-3.47,2.21-5.21
			l0.16-0.63c-1.74-0.16-3.47-0.63-5.21-1.1c-1.58-0.63-3-1.58-4.42-2.52l-0.63,0.32c-2.05,1.26-4.1,2.37-6.15,3.31
			c-2.68,1.26-5.52,1.74-8.52,1.74c-3.47,0-6.79-1.58-8.99-4.26c-1.26-1.42-2.37-3.16-3.31-4.73c-0.63-0.95-1.1-1.89-1.74-2.68
			c-0.63-1.26-2.05-1.74-3.31-1.26c-0.63,0.16-1.26,0.32-1.74,0.63c-3.31,1.58-6,4.1-7.89,7.26c-1.42,2.52-2.68,5.21-3.79,8.05
			c-0.63,1.89-1.42,3.63-2.37,5.52c-0.79,1.58-1.89,3-3.31,4.1c-0.95,0.79-2.05,1.1-3.31,1.1c-0.79-0.16-1.42-0.32-2.21-0.79
			c-1.1-0.63-2.21-1.58-3-2.68c-1.58-2.21-2.84-4.58-3.47-7.26c-0.95-3.47-1.42-6.94-1.26-10.41c0-2.68,0.32-5.37,0.95-8.05
			c0-0.47,0.32-0.95,0.63-1.26c0.16,0.16,0.32,0.47,0.32,0.63c0,0.95,0,2.05,0,3c-0.47,3.79-0.32,7.57,0.47,11.36
			c0.47,2.37,1.42,4.73,2.84,6.94c0.63,0.95,1.26,1.74,2.21,2.21c1.42,1.1,3.47,1.1,5.05,0c1.26-0.79,2.37-2.05,3.16-3.31
			c0.79-1.26,1.42-2.68,1.89-4.26c0.79-2.21,1.58-4.58,2.68-6.79c1.42-3.47,3.63-6.63,6.47-9.15c1.74-1.58,3.63-3,5.68-3.94
			c0.79-0.32,1.58-0.63,2.52-0.63c1.26-0.16,2.68,0.47,3.31,1.58c0.63,1.1,1.26,2.37,2.05,3.47c1.26,2.21,2.84,4.26,4.73,5.84
			c1.42,1.26,3.16,2.05,5.05,2.37c1.42,0.16,2.68,0.16,4.1,0c2.21-0.32,4.42-1.1,6.63-2.05l0.63-0.32v-0.16
			c-0.95-1.42-1.58-3.16-1.58-4.89c-0.16-4.1,1.1-8.05,3.47-11.2c1.1-1.58,2.21-3,3.63-4.26c0.79-0.79,1.74-1.26,2.68-1.58
			c0.47-0.16,0.95-0.16,1.42-0.16c0.63,0,1.26,0.32,1.74,0.79c0.95,1.1,1.74,2.37,2.21,3.63c1.26,3.63,1.26,7.73,0,11.36
			c-0.63,2.05-1.74,3.94-3,5.68l-0.47,0.79c0.63,0.32,1.26,0.63,1.89,0.95c1.74,0.63,3.47,0.95,5.21,0.95
			c2.21,0.16,4.42,0.16,6.63,0c0.47,0,0.95-0.32,1.26-0.63c0.63-0.79,1.1-1.58,1.74-2.37l2.37-3.79c0.63-0.95,0.95-1.89,1.1-3
			c0.32-2.37,0.47-4.73,0.16-7.1c0-2.68-0.32-5.37-0.63-7.89c-0.32-3.47-0.79-7.1-1.1-10.57c-0.32-2.21-0.63-4.42-0.79-6.63
			c-0.32-2.21-0.47-4.89-0.79-7.26c-0.32-2.37-0.63-5.21-0.95-7.73c-0.32-2.68-0.63-4.42-0.79-6.63c0-1.1-0.32-2.21-0.47-3.31
			c-0.16-0.63-0.32-1.42-0.79-1.89c-0.16-0.16-0.16-0.32,0-0.63l2.37-6.31v-0.32c0.32,0,0.32,0.32,0.32,0.47
			c0.95,2.05,1.89,4.1,2.68,6.31c0.95,2.05,2.05,4.73,3,7.1c0.47,0.95,0.63,1.89,0.79,2.84c0,0,0,0.16,0,0.32s0,0.63-0.16,0.63
			c-0.16,0-0.47,0-0.63-0.32l-2.05-2.37c-0.16,0-0.32-0.47-0.63-0.47c-0.32,0-0.16,0.47,0,0.63l0.47,2.84
			c0.32,2.84,0.79,5.68,1.1,8.36c0.47,2.84,0.79,5.05,0.95,7.57s0.63,5.21,0.95,7.89c0.32,2.68,0.47,4.73,0.63,7.1
			c0.16,2.52,0.16,5.05,0,7.57c0,2.68-0.47,5.37-0.95,8.05v0.16l0.47-0.47c2.21-2.68,4.58-5.05,7.26-7.26
			c2.21-1.89,4.58-3.47,7.26-4.58c1.58-0.79,3.31-1.26,5.21-1.42c1.89-0.16,3.63-0.16,5.52,0.47c3,0.79,5.52,2.37,7.73,4.42
			c1.1,0.95,1.89,2.21,2.37,3.63c0.47,1.26,0.47,2.68,0,3.94c-0.95,3-2.37,5.68-4.26,8.21c-0.79,0.95-1.74,1.89-2.68,2.68
			l-0.63,0.63l0,0h0.47c2.05-0.63,4.1-1.42,6.15-2.37c3.94-1.89,7.73-4.1,11.36-6.63c0.79-0.47,1.58-0.95,2.37-1.42
			c0.16-0.16,0.47-0.16,0.63-0.32c0.32,0,0.63,0,0.63,0.47c0,0.47,0,0.95,0,1.58c0,0.47,0,0.95,0,1.58
			c0.32,2.52,2.37,4.26,4.89,4.42c2.05,0.32,4.26,0.16,6.15-0.63c2.21-0.63,4.1-1.89,5.52-3.63c0.95-1.1,1.89-2.37,2.84-3.47
			c0.95-1.1,1.58-2.05,2.37-3C392.92,511.34,393.08,511.18,393.4,511.03z M353.95,516.39c-0.16-0.47-0.32-0.95-0.63-1.26
			c-1.89-2.37-4.1-4.1-6.79-5.37c-2.05-1.1-4.26-1.58-6.63-1.58c-2.05,0-3.94,0.47-5.84,1.42c-2.68,1.26-5.05,2.84-7.26,4.89
			c-2.84,2.52-5.37,5.52-7.57,8.68c-0.63,0.95-1.26,1.89-1.89,2.84c0,0.16-0.32,0.32,0,0.63c0.16,0,0.47,0,0.63,0
			c3-0.32,6-0.63,8.99-1.1c2.52-0.32,4.89-0.95,7.42-1.42c4.26-0.79,8.36-2.05,12.47-3.63c2.05-0.79,3.94-1.74,5.68-2.84
			C353,517.02,353.48,516.71,353.95,516.39z M294.14,521.91l0.32-0.16c1.42-0.95,2.84-2.05,4.26-3.31c0.47-0.47,0.95-0.95,1.42-1.42
			c0-0.16,0-0.32,0-0.47c-0.16-1.74-0.79-3.47-1.74-5.05c-0.32-0.47-0.63-0.95-1.1-1.26c-0.79-0.63-1.89-0.79-2.68-0.16l-0.63,0.47
			c-2.05,1.74-3.63,3.79-4.73,6.15c-0.16,0.32-0.16,0.63,0,0.95c0.95,1.26,2.05,2.37,3.31,3.31
			C293.2,521.28,293.67,521.6,294.14,521.91z M403.02,518.13L403.02,518.13l-0.47-1.89c-0.32-0.79-0.63-1.74-1.26-2.37
			c-0.63-0.95-1.74-1.42-2.84-1.26c-0.79,0.16-1.58,0.32-2.21,0.79l-0.79,0.47C397.66,516.23,400.18,517.65,403.02,518.13
			L403.02,518.13z"/>
		<path class="st0" d="M121.67,518.6c-0.95,2.05-1.26,4.58-0.63,6.79c0.32,1.74,1.58,3.31,3.31,4.1c1.26,0.47,2.52,0.79,3.79,0.79
			c1.89,0,3.63-0.32,5.37-1.1s3.31-2.05,4.42-3.63c0.63-0.79,1.26-1.74,1.89-2.68c0.63-0.95,0.95-1.74,1.58-2.52s0.95-1.1,1.58-1.74
			l0,0c0,0,0.32-0.32,0.63-0.16c0.32,0.16,0,0.32,0,0.63c0,0.16,0,1.1,0,1.74c0,0.95,0.32,1.74,0.95,2.52c0.79,1.1,1.89,1.89,3,2.37
			l0.95-1.58c2.21-3.94,4.73-7.73,7.42-11.2c1.89-2.52,4.1-4.73,6.63-6.63c1.74-1.42,3.79-2.52,6-3c2.84-0.79,5.84-0.47,8.52,0.79
			c3.31,1.58,6,3.94,8.05,6.94c1.1,1.58,1.58,3.47,1.26,5.37c-0.32,2.68-1.1,5.37-2.37,7.89c-0.47,1.1-1.26,2.05-2.21,3v0.16h0.47
			c3-0.63,5.84-1.26,8.84-2.05c1.26-0.32,2.68-0.79,3.79-1.26l0,0c-0.63-1.26-0.95-2.52-0.95-3.94c-0.32-4.42,0.95-8.68,3.63-12.15
			c1.1-1.42,2.37-2.84,3.79-3.94c0.79-0.63,1.74-1.26,2.68-1.58c0.47-0.16,1.1-0.16,1.58,0c0.63,0.16,1.26,0.47,1.58,0.79
			c0.95,1.1,1.74,2.37,2.05,3.79c1.42,4.73,0.79,9.94-1.89,14.36c-0.47,0.79-0.95,1.58-1.58,2.37c0.16,0.16,0.32,0.16,0.63,0.32
			c2.05,0.63,4.42,1.1,6.63,0.95c2.52,0,4.89-1.1,6.63-2.68c0.16-0.16,0.32-0.47,0.32-0.79c0-2.05,0-4.1-0.32-6.31
			c0-2.68-0.47-5.52-0.63-8.36c-0.16-2.21-0.32-4.42-0.63-6.63c-0.16-2.05-0.47-4.42-0.63-6.63l-0.63-6.94
			c-0.16-2.21-0.47-4.42-0.79-6.63c-0.32-2.84-0.63-5.52-0.95-8.36c-0.32-2.84-0.47-4.73-0.79-7.1l-0.63-4.73
			c0-0.79-0.32-1.42-0.79-2.05c-0.16-0.16-0.16-0.47,0-0.63l2.37-6.15c0,0,0.16-0.16,0.32-0.47l0.16,0.47
			c1.89,4.42,3.79,8.99,5.52,13.57c0.47,0.95,0.63,1.89,0.79,2.84v0.32c0,0.16,0,0.47-0.16,0.47s-0.32-0.16-0.47-0.32l-2.05-2.52
			c0-0.16-0.32-0.47-0.63-0.47c-0.32,0,0,0.47,0,0.63c0,0.95,0.16,1.74,0.32,2.68c0.32,2.21,0.63,4.42,0.79,6.63
			c0.32,3,0.79,5.84,1.1,8.84c0.47,3.47,0.79,6.94,1.1,10.26c0.47,3.47,0.63,7.73,0.79,11.68c0.16,2.84,0.16,5.84,0,8.68
			c-0.16,2.68-0.47,5.37-1.26,8.05c-0.47,1.74-1.1,3.31-1.89,4.73c-1.1,1.89-2.84,3.31-4.89,3.79c-2.21,0.47-4.42,0.63-6.63,0.32
			c-2.52-0.32-5.05-1.1-7.42-2.21c-0.63-0.32-1.1-0.63-1.74-0.95c-0.16-0.16-0.47-0.16-0.63,0l-7.26,2.68l0,0
			c-0.47,2.52-1.26,4.89-2.37,7.26c-0.47,1.1-0.79,2.21-0.95,3.31c-0.16,0.95,0,1.74,0.32,2.68c0.32,0.79,0.95,1.26,1.74,1.42
			c0.47,0.16,1.1-0.16,1.26-0.63c0.32-0.63,0.63-1.42,0.95-2.05c0.16-0.16,0.16-0.32,0.32-0.47l0,0c0,0,0,0.32,0,0.47
			c-0.16,1.89-0.95,3.79-2.21,5.37c-0.32,0.32-0.47,0.63-0.79,0.79c-0.79,0.63-2.05,0.47-2.68-0.32c-0.63-0.79-1.1-1.74-1.26-2.84
			c-0.16-1.58,0.16-3,0.63-4.42c0.79-2.52,1.89-4.89,3-7.42l0.95-2.37c0-0.16,0-0.32,0-0.47h-0.47c-5.05,1.42-10.26,2.52-15.46,3.31
			c-2.21,0.32-4.58,0.47-6.79,0.63c-2.84,0.16-5.68,0.16-8.52,0c-3.31-0.16-6.47-0.63-9.63-1.58c-0.95-0.32-1.74-0.63-2.68-0.95
			h-0.32l-0.32,0.47c-0.47,0.79-0.79,1.74-1.26,2.52c-0.16,0.32-0.32,0.63-0.63,0.95c-0.16,0.16-0.32,0.32-0.47,0.47
			c-0.16-0.32-0.32-0.63-0.16-0.95c0-1.26,0.32-2.52,0.63-3.79c0-0.47,0.16-0.79,0.32-1.26c-0.79-0.63-1.58-1.26-2.21-2.21
			c-0.63-0.79-1.1-1.74-1.74-2.68c0.47,0.95,0.32,0.95,0.32,1.1c-0.47,0.63-0.79,1.26-1.26,1.89c-0.47,0.63-1.42,2.21-2.21,3.31
			c-1.74,2.21-4.1,3.79-6.79,4.42c-2.52,0.63-5.37,0.47-7.89-0.63c-2.21-0.95-3.94-3-4.42-5.36c-0.79-3-0.79-6.15,0-9.31
			c0.16-0.95,0.47-1.89,0.79-2.68c0-0.16,0.16-0.47,0.16-0.63h-1.74c-2.37,0.32-4.73,1.1-6.94,2.21c-3.16,1.58-6.15,3.47-8.99,5.52
			c-2.21,1.58-4.42,3.31-6.47,5.21c-2.84,2.68-5.68,5.21-8.84,7.57c-1.42,1.1-2.84,2.21-4.42,3c-1.42,0.79-2.84,1.26-4.42,1.42
			c-2.52,0.16-4.89-0.79-6.63-2.68c-1.74-1.89-2.68-4.26-2.84-6.94c-0.32-3.47,0-7.1,1.26-10.41c0.47-1.26,0.95-2.52,1.58-3.79
			c0.16-0.32,0.16-0.63,0-0.79c-0.47-1.42-0.63-3-0.32-4.58c0.16-1.26,0.63-2.37,0.95-3.63c0.95-2.84,2.21-5.68,3.47-8.52l1.42-3.31
			l0.32-0.47c0.32,0.16,0.32,0.63,0.16,0.95c0,1.1-0.32,2.05-0.63,3c-0.79,2.05-1.58,3.94-2.37,5.84c-0.47,1.26-0.95,2.52-1.1,3.79
			c-0.16,0.95,0,2.05,0.47,2.84c0.32,0.79,1.1,1.42,1.89,1.58c0.63,0.16,1.26-0.16,1.58-0.63l0,0c0.32-0.63,0.47-1.1,0.79-1.74
			c0.16-0.32,0.32-0.79,0.63-1.1c0.16,0,0.16,0,0.32,0c0,0,0,0.16,0.16,0.32c0,0.32,0,0.47,0,0.79c-0.32,1.58-0.95,3.16-1.74,4.73
			c-0.47,0.79-0.95,1.42-1.74,2.05c-0.63,0.63-1.74,0.63-2.52,0.32c-0.32-0.16-0.63-0.32-0.95-0.63v0.63
			c-1.1,2.21-1.89,4.73-2.21,7.26c-0.32,1.89-0.16,3.63,0.32,5.52c0.32,1.42,1.26,2.52,2.52,3.31c0.79,0.47,1.74,0.63,2.68,0.63
			c2.68-0.16,5.21-1.1,7.42-2.68c2.21-1.42,4.26-3.16,6.15-4.73c4.26-3.47,8.36-7.1,12.78-10.26c2.68-1.89,5.37-3.63,8.21-5.21
			c2.21-1.26,4.58-2.05,7.1-2.68l0,0v-0.63c-0.95-3-1.58-6-2.05-8.99c-0.32-2.05-0.47-4.26-0.79-6.31c0-0.95-0.32-1.74-0.95-2.37
			c-0.16-0.16,0-0.47,0-0.63c0.47-1.26,1.1-2.52,1.58-3.79l0.79-1.89l0.32-0.63c0,0.16,0.32,0.32,0.32,0.47l0.95,1.58
			c1.1,2.21,2.21,4.26,3.31,6.47c0.63,0.79,1.1,1.74,1.42,2.84c0,0.32,0.16,0.63,0,0.79s-0.63,0-0.79-0.16l-1.58-0.95
			c-0.16-0.16-0.47-0.32-0.79-0.32c0,0,0,0.16,0,0.32c0.47,2.52,0.79,5.21,1.58,7.73c0.32,1.42,0.95,2.68,1.58,3.94
			c0.32,0.63,0.95,1.1,1.58,1.42l3.31,1.58l3,1.42c0.47,0.16,0.95,0.47,1.26,0.79c0.47,0.32,0.79,0.79,0.95,1.42
			c0.16,0.47,0.16,0.95,0.16,1.42c0,1.42,0,3,0,4.42c0,0.95-0.47,1.1-1.26,0.47c-2.52-1.89-5.52-3.16-8.52-3.94L121.67,518.6
			L121.67,518.6z M183.85,519.86l-0.63-1.26c-2.05-3.47-5.05-6.15-8.68-7.89c-2.37-1.26-5.05-1.58-7.73-0.95
			c-1.74,0.47-3.47,1.26-4.89,2.37c-1.58,1.1-3,2.52-4.26,3.94c-2.68,2.84-5.05,6-7.1,9.47c-0.16,0.32-0.47,0.63-0.63,0.95h0.16
			h0.47c1.74,0.47,3.47,0.63,5.37,0.79c5.05,0.47,10.26,0,15.15-1.42c3.47-0.95,6.79-2.37,9.94-4.1
			C182.11,521.44,183.06,520.81,183.85,519.86L183.85,519.86z M201.2,521.44c0.79-0.47,1.74-0.95,2.52-1.58
			c0.63-0.32,1.26-0.79,1.74-1.26c0.63-0.47,1.1-0.95,1.58-1.58c0.16-0.16,0.32-0.47,0.16-0.79c-0.16-1.74-0.63-3.31-1.42-4.89
			c-0.32-0.47-0.63-0.95-0.95-1.42c-0.79-0.79-2.05-0.95-3-0.32c-0.79,0.47-1.58,1.1-2.21,1.89c-1.1,1.1-2.05,2.37-2.84,3.79
			c-0.32,0.47-0.32,1.1,0,1.58c0.63,0.95,1.26,2.05,2.21,2.84C199.78,520.49,200.41,520.97,201.2,521.44L201.2,521.44z"/>
		<path class="st0" d="M503.85,530.75l-0.63,0.32c-4.42,2.05-9.15,3.63-14.04,4.58c-3.31,0.63-6.79,0.95-10.26,0.79
			c-2.84-0.16-5.52-0.79-8.05-1.74c-2.68-1.1-5.05-2.84-6.79-5.21l-0.47-0.63c0,0.47,0,0.79-0.16,1.1c-0.47,1.1-0.79,2.21-1.26,3.31
			c-0.47,1.1-0.95,2.37-1.42,3.63c-0.32,0.79-0.47,1.58-0.47,2.37c-0.16,0.79,0,1.58,0.47,2.37c0.32,0.63,0.95,1.1,1.58,1.26
			c0.47,0.16,1.1,0,1.42-0.63l0,0c0.32-0.63,0.63-1.42,0.95-2.05c0-0.32,0.32-0.47,0.47-0.47c0,0.16,0,0.32,0,0.47
			c-0.16,2.05-0.95,3.79-2.21,5.37c-0.16,0.32-0.47,0.47-0.79,0.63c-0.79,0.63-2.05,0.47-2.68-0.32c-0.79-0.95-1.26-2.05-1.26-3.31
			c0-1.42,0.16-2.68,0.63-3.94c0.95-2.68,2.05-5.37,3.31-8.05l1.1-2.52l-0.63-1.1c-1.42-2.52-2.37-5.21-3-8.05
			c-0.79-3.94-1.42-8.05-1.74-12.15c-0.32-3.94-0.79-7.89-1.1-11.68c-0.32-3.31-0.47-6.47-0.79-9.63
			c-0.63-5.84-1.1-11.52-2.05-17.36c-0.47-2.84-0.95-5.52-1.74-8.21l-0.47-1.58c-0.16-0.16-0.16-0.47,0-0.63
			c0.79-2.05,1.42-4.26,2.05-6.31c0-0.16,0.16-0.32,0.16-0.63c0,0.32,0.32,0.47,0.47,0.79c0.63,1.42,1.1,2.84,1.58,4.42
			c0.63,2.52,1.1,5.05,1.58,7.73c0.47,3.31,0.95,6.63,1.26,9.94c0.32,3.31,0.63,5.68,0.79,8.36l0.63,7.89
			c0.16,2.37,0.47,4.73,0.63,7.1l0.47,5.68c0.16,2.05,0.32,4.26,0.63,6.31c0.32,3.47,0.95,6.79,2.05,10.1
			c1.26,3.94,4.1,7.26,7.73,9.15c1.58,0.79,3.31,1.26,5.05,1.42c3,0.47,6.15,0.47,9.15,0c5.68-0.79,11.2-2.37,16.57-4.58
			c0.32-0.16,0.47-0.47,0.47-0.79c0-1.42,0-3,0-4.42c0.16-3.94,1.1-7.73,2.84-11.36c0.63-1.42,1.58-2.68,2.52-3.79
			c0.47-0.47,0.95-0.95,1.58-1.42l0.47-0.16c0.47-0.47,1.26-0.47,1.74,0c0.79,0.63,1.42,1.26,1.89,2.05c1.26,1.74,1.89,3.79,2.21,6
			c0.47,3.47,0.16,6.79-0.95,10.1c-0.63,2.21-1.89,4.1-3.79,5.52c-1.42,0.95-2.84,1.89-4.42,2.68l-1.1,0.63
			c-0.32,0-0.47,0.32-0.47,0.63c0,0.47,0,0.95,0,1.42c0,0.47-0.16,0.95-0.32,1.42c0,0.16-0.32,0.47-0.47,0.47
			c-0.16,0-0.47-0.32-0.47-0.47c0-0.32-0.16-1.26-0.32-1.74C503.85,531.38,503.85,531.07,503.85,530.75z M504.8,524.12h0.32
			c2.84-1.42,5.52-3,8.05-4.89l0.63-0.63c0.32-0.16,0.47-0.63,0.32-0.95c-0.47-2.37-1.74-4.58-3.31-6.31
			c-0.16-0.16-0.32-0.32-0.63-0.47c-0.47-0.32-1.26-0.32-1.74,0c-0.32,0.32-0.63,0.47-0.79,0.79c-0.32,0.47-0.63,1.1-0.95,1.74
			C505.12,516.71,504.49,520.34,504.8,524.12L504.8,524.12z"/>
		<path class="st0" d="M445.47,506.14c0.16,0.47,0.32,0.63,0.47,0.95l3.63,6.94c1.1,2.05,1.74,4.26,1.74,6.63
			c0,1.1-0.16,2.21-0.32,3.31c-0.16,1.74-0.63,3.31-0.95,5.05c-0.47,1.74-1.42,3.47-2.84,4.73c-1.58,1.58-3.31,3-5.05,4.26
			c-3.63,2.68-7.42,5.37-11.36,7.73c-2.52,1.42-5.05,2.68-7.73,3.63c-0.79,0.16-1.58,0.32-2.37,0.47l-13.89,2.05l-6,0.95l0,0
			c-0.16,0-0.47,0-0.47-0.16c0-0.16,0-0.47,0.32-0.47l0.47-0.16c6.15-2.05,12.31-4.42,18.3-7.1c4.58-1.89,8.99-4.1,13.25-6.63
			c1.89-1.1,3.79-2.37,5.52-3.63c2.84-2.05,5.68-4.26,8.21-6.63c0.79-0.63,1.42-1.42,2.05-2.05c0.32-0.32,0.47-0.79,0.16-1.26
			c-0.63-1.42-1.26-2.84-1.89-4.26c-1.26-2.52-2.37-5.05-3.31-7.57c-0.63-1.89-1.1-3.94-1.74-5.84c0,0,0-0.16,0-0.32
			c-0.16-0.95-0.63-1.58-1.42-2.21c0.63-2.21,0.95-4.58,1.74-6.79l0.47,0.32l5.68,6.63c0.32,0.47,0.63,0.79,0.79,1.26
			c0,0.16,0,0.32,0,0.47c0,0.47,0,0.63-0.47,0.47c-0.47,0-1.26-0.32-1.89-0.47L445.47,506.14z"/>
		<path class="st0" d="M425.9,507.56c3-4.58,5.68-9.47,7.89-14.36l0,0c0,0.16,0,0.47,0,0.63c0,1.1-0.16,2.21-0.32,3.31
			c-0.16,1.1-0.32,2.05-0.47,3.16c-0.16,0.63-0.32,1.26-0.63,1.89c-1.26,2.52-2.52,5.05-3.94,7.42c0,0.16,0,0.16,0,0.32l0.63,0.63
			c0.63,0.79,1.26,1.58,1.89,2.37c1.26,1.58,2.21,3.63,2.37,5.68c0.32,2.37,0.32,4.89-0.32,7.26c-0.32,1.58-1.1,3.16-2.21,4.42
			c-0.32,0.47-0.79,0.79-1.1,1.1c-1.89,1.58-3.94,2.68-6.31,3.31c-0.79,0.16-1.74,0.32-2.52,0.32c-1.58,0-3-1.1-3.47-2.68
			c-0.32-1.1-0.47-2.21-0.47-3.31c-0.16-2.21,0.16-4.42,0.63-6.63c0.47-1.74,1.26-3.47,2.05-5.21c0.79-1.58,1.74-3.16,2.84-4.58
			c0.16-0.16,0.32-0.47,0.47-0.63l-0.32-0.47c-1.58-1.89-3-3.79-4.26-5.84c-0.16-0.32-0.47-0.63-0.79-0.95s-0.63-0.63-1.1-0.63
			h-0.32c0-2.21,0-4.58,0.32-6.79h0.32c2.84,1.74,5.68,3.31,8.52,5.21c0.32,0.16,0.47,0.32,0.63,0.63
			c-0.16,0.16-0.47,0.32-0.79,0.16h-1.89c-0.32,0-0.47,0-0.79,0c0.16,0.16,0.16,0.32,0.32,0.47l3.31,3.31L425.9,507.56z
			 M425.11,514.66l-0.16,0.16c-1.1,1.74-2.21,3.31-3.31,5.05c-0.95,1.42-1.74,3-2.37,4.58c-0.16,0.63-0.32,1.26-0.47,2.05
			c-0.16,0.63,0.16,1.1,0.79,1.26l0,0c0.32,0.16,0.63,0.16,0.95,0.16c0.95,0.16,1.89,0,2.84-0.32c1.42-0.47,2.68-0.95,3.94-1.74
			c1.58-0.95,3-2.05,4.26-3.31c0.47-0.47,0.47-0.47,0-1.1c-0.63-1.1-1.26-2.05-2.21-2.84C427.95,517.34,426.69,516.08,425.11,514.66
			L425.11,514.66z"/>
		<path class="st0" d="M238.92,465.11c-0.16,0,0,0.47,0,0.63c0.32,1.89,0.47,3.79,0.79,5.68c0.47,3.31,0.79,6.47,1.1,9.63
			c0.32,2.21,0.63,4.58,0.79,6.79c0.16,2.21,0.63,5.21,0.79,7.89c0.32,2.68,0.47,4.58,0.63,6.79c0.32,4.58,0.47,9.15,0.32,13.73
			c-0.16,2.68-0.47,5.36-0.95,7.89c-0.32,1.26-0.79,2.68-1.26,3.94c-0.16,0.32-0.16,0.47-0.32,0.63c0,0-0.16,0.47-0.47,0.32
			c-0.16-0.16-0.32-0.32-0.32-0.47c0-0.32,0-0.63,0-0.95c0-1.74,0-3.31,0-5.21c0-2.52,0-4.89-0.32-7.42
			c-0.32-2.52-0.32-5.84-0.63-8.84c-0.16-2.21-0.32-4.42-0.63-6.63c-0.32-3.31-0.63-6.63-1.1-9.94c-0.32-2.37-0.63-4.73-0.79-7.1
			l-0.47-4.73c-0.32-2.37-0.47-4.89-0.79-7.26c-0.32-2.37-0.63-4.89-0.79-7.26c0-1.26-0.32-2.37-0.47-3.63
			c-0.16-0.63-0.32-1.1-0.63-1.58c-0.16-0.16-0.16-0.47,0-0.63l2.37-6.15c0,0,0.16-0.16,0.32-0.47l0.16,0.32
			c1.89,4.42,3.63,8.84,5.52,13.25c0.32,0.79,0.63,1.74,0.79,2.68c0,0.32,0,0.63,0,0.95s-0.16,0.47-0.47,0.16
			c-0.16-0.16-0.32-0.32-0.47-0.47l-1.89-2.37C239.23,465.42,239.07,465.11,238.92,465.11z"/>
		<path class="st0" d="M516,454.54l0.32,0.47c1.89,4.1,3.63,8.36,5.52,12.47c0.32,0.95,0.63,1.89,0.95,2.84c0,0.47,0,0.95,0,1.42
			c0,0.16,0,0.32,0,0.32c-0.16,0-0.32,0-0.47,0c-0.16-0.16-0.32-0.32-0.47-0.47l-1.89-2.21c0,0-0.32-0.47-0.63-0.32
			c-0.32,0,0,0.47,0,0.63l1.1,7.26c0.47,3.31,0.95,6.63,1.42,9.94c0.32,2.68,0.79,5.37,0.95,8.05c0.47,3.31,0.79,6.63,1.1,10.1
			c0.32,3.31,0.47,6.63,0.47,9.94c0,3.16-0.32,6.47-0.95,9.63c-0.32,1.26-0.79,2.68-1.1,3.94c-0.16,0.32-0.16,0.63-0.47,0.79
			c-0.16,0.32-0.47,0.32-0.63,0c0-0.32,0-0.79,0-1.1c0-1.42,0-2.84,0-4.42c0-2.37-0.16-4.73-0.32-7.1c-0.16-2.37-0.32-4.73-0.63-7.1
			c-0.32-2.37-0.47-4.73-0.63-7.1c-0.32-2.84-0.63-5.84-1.1-8.68l-1.1-7.89l-1.26-7.26c-0.47-2.84-0.79-5.52-1.1-8.36
			c-0.32-1.89-0.63-3.79-0.79-5.68c0-0.79-0.32-1.58-0.95-2.37c-0.16-0.16-0.16-0.47,0-0.63c0.47-1.42,0.95-2.84,1.58-4.26
			l0.63-1.89L516,454.54z"/>
		<path class="st0" d="M203.41,455.17c0,0.16,0,0.32,0,0.47l-1.1,2.52c0,0.32-0.32,0.32-0.47,0.47c-3.79,1.89-7.73,3.79-11.52,5.68
			c-11.05,5.52-21.93,11.36-32.82,17.36c-4.42,2.52-8.84,5.05-13.25,7.57c-1.26,0.79-2.37,1.58-3.47,2.37
			c-0.16,0.16-0.47,0.32-0.63,0.32c0-0.16,0-0.47,0-0.63c0-0.32,0.16-0.47,0.16-0.79c0.32-0.79,0.79-1.58,1.1-2.37
			c0.32-0.47,0.79-0.95,1.26-1.26c0.95-0.63,1.89-1.26,2.84-1.89c8.21-4.89,16.73-9.31,25.09-13.89
			c8.36-4.42,16.25-8.52,24.62-12.47l7.26-3.63l0.79-0.32L203.41,455.17z"/>
		<path class="st0" d="M327.12,482.94c0-0.16,0-0.47,0-0.63c0-0.32,0.16-0.63,0.32-0.95c0.32-0.79,0.63-1.42,1.1-2.21
			c0.32-0.63,0.79-1.1,1.42-1.42c0.95-0.63,2.05-1.26,3-1.89c12.62-7.1,25.41-13.89,38.66-19.88c2.52-1.26,5.21-2.21,7.73-3.31
			c0.32-0.16,0.63-0.32,0.79-0.32c0,0.16,0,0.47,0,0.63c-0.32,0.79-0.79,1.58-1.1,2.52c-0.16,0.16-0.32,0.47-0.63,0.47
			c-4.42,2.05-8.84,4.1-13.25,6.31c-9.31,4.42-18.62,9.31-27.77,14.36c-2.21,1.26-4.42,2.52-6.63,3.79
			c-1.1,0.63-2.21,1.58-3.31,2.21L327.12,482.94z"/>
		<path class="st0" d="M132.56,469.05c0-0.63,0.16-1.26,0.32-1.74c0.16-1.58,0.32-3,0.63-4.58c0.16-1.26,0.47-2.52,0.95-3.63
			c0.32-0.79,0.79-1.58,1.42-2.21c0.63-0.63,1.58-0.79,2.21-0.16c0.16,0,0.16,0.16,0.16,0.16c0.47,0.47,0.95,0.95,1.42,1.58
			c0.16,0.16,0.32,0.47,0.16,0.79c-0.16,0.79-0.32,1.42-0.63,2.21c0,0,0,0,0,0.16l-0.32-0.32c-0.32-0.47-0.63-0.79-1.1-1.26
			c-0.95-0.95-1.89-0.79-2.52,0.47c-0.32,0.79-0.63,1.58-0.79,2.37c-0.16,1.26-0.47,2.52-0.63,3.79c-0.16,2.05-0.63,3.94-1.26,5.84
			c0.47,0.16,0.95,0.32,1.42,0.63c1.26,0.79,2.52,2.05,3.31,3.31c0.16,0.16,0.16,0.47,0,0.63c-0.16,0.79-0.32,1.58-0.63,2.37
			c0,0.32-0.32,0.47-0.63,0.47l0,0c-1.89,0.16-3.79,0.63-5.52,1.42c-0.47,0.16-0.95,0.47-1.26,0.79c-0.16,0-0.32,0.32-0.63,0.47
			l1.26,1.74c2.05,4.58,3.63,9.47,4.58,14.52c0.47,2.68,0.63,5.37,0.47,8.05c0,0.63-0.16,1.42-0.32,2.05c0,0.16-0.16,0.32-0.16,0.47
			l0,0c0,0,0-0.16,0-0.32c-0.16-6.31-1.42-12.78-3.79-18.62c-0.63-1.89-1.42-3.63-2.21-5.37c-0.32-0.79-0.47-1.58-0.47-2.37
			c0.16-1.74,0.95-3.31,2.52-4.26c0.95-0.63,2.21-1.1,3.31-1.42h0.47c-0.16-0.16-0.32-0.47-0.63-0.47c-0.47-0.47-1.1-0.79-1.89-0.95
			c-0.63-0.16-1.1,0.16-1.42,0.63l-0.63,0.95c-0.16,0.16-0.32,0.32-0.47,0.63c-0.47-1.1,0.79-3.63,2.37-5.21
			c-0.63-3.16-1.89-6.31-3.63-9.15l-0.63,0.79l-0.47-0.32l-2.84-1.74c-0.32-0.16-0.47-0.47-0.47-0.79c0.16-0.79,0.32-1.58,0.47-2.21
			c0.32-0.95,0.79-1.1,1.58-0.79c1.42,0.47,2.68,1.42,3.63,2.84c0.79,1.1,1.42,2.52,1.89,3.79c0.47,1.1,0.63,2.37,0.95,3.47
			c0,0,0,0.32,0,0.47L132.56,469.05L132.56,469.05z"/>
		<path class="st0" d="M86.49,480.26c-0.63-0.79-1.42-1.26-2.37-1.42c-0.47,0-0.95,0.16-1.26,0.63l-0.63,0.95l-0.47,0.63
			c-0.32,0-0.16-0.32-0.16-0.47c0.32-1.74,1.1-3.31,2.37-4.42l0,0c-0.63-3.31-1.89-6.31-3.63-9.15l-0.63,0.79l-0.47-0.32l-2.84-2.05
			c-0.32-0.16-0.47-0.47-0.47-0.79c0-0.79,0.32-1.58,0.47-2.37s0.79-0.95,1.58-0.79c1.42,0.47,2.68,1.42,3.63,2.84
			c0.79,1.26,1.58,2.52,2.05,4.1c0.32,1.1,0.63,2.37,0.95,3.47c0,0.16,0.16,0.32,0.16,0.47c0-0.63,0.16-1.26,0.32-1.89
			c0.16-1.58,0.32-3,0.63-4.58c0.16-1.26,0.47-2.52,0.95-3.63c0.32-0.79,0.79-1.58,1.42-2.21c0.63-0.63,1.58-0.79,2.21-0.16
			l0.16,0.16c0.47,0.47,0.95,0.95,1.42,1.42c0.16,0.16,0.32,0.47,0.16,0.79c0,0.63-0.32,1.42-0.47,2.05c0,0,0,0,0,0.16l-0.32-0.16
			c-0.32-0.47-0.63-0.79-1.1-1.26c-1.1-1.1-2.05-0.95-2.68,0.47c-0.32,0.63-0.47,1.42-0.63,2.21c-0.16,1.26-0.32,2.37-0.47,3.63
			c-0.16,2.05-0.63,4.1-1.26,6h0.32c0.79,0.32,1.42,0.63,2.05,1.26c0.79,0.79,1.58,1.58,2.21,2.52c0.16,0.32,0.32,0.63,0.16,0.95
			c-0.16,0.79-0.32,1.42-0.47,2.21c-0.16,0.79,0,0.47-0.63,0.47c-1.89,0.16-3.63,0.63-5.37,1.42l-1.26,0.79l-0.63,0.63l0.79,1.89
			c2.05,4.42,3.47,9.15,4.42,14.04c0.63,2.84,0.79,5.68,0.63,8.52c0,0.79-0.16,1.42-0.32,2.21c0,0.16-0.16,0.32-0.16,0.63l0,0
			c0-0.16,0-0.32,0-0.32c-0.16-7.26-1.74-14.36-4.73-20.83l-1.42-3.31c-0.63-1.42-0.47-3,0.16-4.42c0.47-0.79,1.1-1.58,1.89-2.05
			c0.95-0.63,2.05-1.1,3.31-1.42L86.49,480.26z"/>
		<path class="st0" d="M307.08,456.59c0,0.16,0,0.47,0,0.63l-0.79,2.05c-0.16,0.32-0.32,0.63-0.63,0.79
			c-4.26,2.05-8.36,4.1-12.62,6.15c-9.31,4.73-18.3,9.63-27.3,14.83c-2.37,1.42-4.73,2.84-7.1,4.26c-0.79,0.47-1.58,1.1-2.21,1.58
			l-0.47,0.32c0-0.16,0-0.32,0-0.47c0-0.32,0.16-0.47,0.16-0.79c0.32-0.79,0.63-1.42,1.1-2.21c0.32-0.47,0.63-0.95,1.1-1.26
			c0.79-0.47,1.58-1.1,2.37-1.58c6.47-3.94,13.1-7.57,20.04-11.2c7.89-4.26,16.1-8.36,24.3-12.15l1.74-0.79L307.08,456.59z"/>
		<path class="st0" d="M463.93,495.41c0-0.16,0-0.32,0-0.63c0.32-1.1,0.95-2.21,1.58-3.16c0.32-0.32,0.63-0.79,0.95-0.95
			c0.63-0.47,1.1-0.79,1.74-1.1c5.84-3.31,11.68-6.15,17.67-9.15c6-2.84,12.31-6,18.62-8.52c1.74-0.79,3.47-1.42,5.21-2.05
			l0.63-0.16c0.16,0.16,0,0.47,0,0.47l-1.1,2.37c-0.16,0.16-0.32,0.32-0.63,0.47l-6.31,2.68c-9.78,4.42-19.25,9.15-28.72,14.04
			c-2.37,1.26-4.58,2.52-6.94,3.79c-0.95,0.47-1.74,1.26-2.68,1.74L463.93,495.41L463.93,495.41z"/>
		<path class="st0" d="M401.92,487.2c0-0.16,0-0.47,0-0.63c0.32-0.95,0.63-1.89,1.26-2.84c0.47-0.63,0.95-1.1,1.58-1.42l3.31-2.21
			c9.94-5.84,19.57-11.68,29.67-17.04c3-1.58,6.15-3.16,9.31-4.58l0.79-0.32c0,0.16,0,0.32,0,0.47c-0.32,0.63-0.63,1.42-0.79,2.05
			c-0.16,0.63-0.32,0.47-0.63,0.47c-4.73,2.52-9.63,5.05-14.36,7.73c-8.52,4.58-16.88,9.47-25.09,14.67
			c-1.74,0.95-3.31,2.05-4.73,3.31h-0.16L401.92,487.2z"/>
		<path class="st0" d="M259.9,499.19l-0.32,0.47l-2.84,4.1l-0.47,0.63l-0.47-0.32l-5.68-3.94l-0.16-0.16
			c-0.32-0.32-0.47-0.47,0-0.79l3.31-4.73c0.16-0.32,0.32-0.32,0.79,0l5.21,3.63l0.47,0.32l0.47-0.32l2.68-3.94l0.16-0.32
			c0-0.16,0.32-0.32,0.63,0l0.32,0.16l5.84,3.79l0.32,0.16c0,0,0,0,0.16,0.16l-0.16,0.32c-0.95,1.58-2.05,3-3,4.58
			c-0.47,0.63-0.47,0.63-1.1,0.16l-5.52-3.63L259.9,499.19z"/>
		<path class="st0" d="M290.36,487.04l6.63,4.42l0.32-0.47c0.95-1.26,1.74-2.52,2.68-3.94c0.16-0.16,0.16-0.16,0.32-0.32
			c0.16-0.16,0.32-0.16,0.47,0l0,0l0.32,0.16l5.84,3.94h0.16c0.16,0.16,0.16,0.32,0,0.47l0,0l-0.16,0.16l-3,4.58
			c-0.16,0.16-0.32,0.47-0.47,0.63l-6.63-4.42c-0.16,0.16-0.32,0.32-0.32,0.47c-0.79,1.26-1.74,2.68-2.68,3.94l-0.16,0.32
			c-0.32,0.47-0.32,0.47-0.79,0l-5.68-3.94h-0.16c-0.32-0.32-0.32-0.47,0-0.79l0,0l3-4.42L290.36,487.04z"/>
		<path class="st0" d="M112.84,544.32l-6.31-4.1c-0.16,0.16-0.16,0.16-0.32,0.32l-2.68,4.26c0,0.16-0.32,0.47-0.47,0.63l-0.47-0.32
			l-5.84-4.1h-0.16c-0.32-0.32-0.47-0.47-0.16-0.79c0.95-1.58,2.05-3.31,3-4.73c0.16-0.32,0.32-0.32,0.79,0l5.37,3.31l0.63,0.47
			l3.31-5.21l0.63,0.32l6,3.79c0.47,0.32,0.47,0.32,0.16,0.79l-3,4.73C113.31,543.85,113,544.16,112.84,544.32z"/>
		<path class="st0" d="M367.99,479.94c-3.31-0.16-6.63,0.32-9.94,1.1c-0.16-0.16-0.16-0.47,0-0.79c0-0.32,0.32-0.63,0.47-0.95
			l1.74-3.31l0.47-0.63c0.47-0.63,0.95-0.95,1.74-1.1c2.05-0.32,4.1-0.63,6.15-0.63h3.63c0.32,0,0.47,0,0.79,0
			c0.47,0,0.63,0.47,0.63,0.79c0,0,0,0,0,0.16c0,0.32-0.16,0.63-0.32,0.79c-0.79,1.89-1.74,3.79-2.84,5.52
			c-0.47,0.79-1.1,1.58-1.74,2.37c-0.47,0.63-1.26,0.95-2.05,1.26l-6.63,1.42h-0.79c-0.16,0-0.32,0-0.47,0s-0.32-0.16-0.32-0.16
			c0-0.16,0-0.32,0-0.32l0.47-0.32c1.58-0.79,3.16-1.58,4.73-2.52c1.58-0.79,2.68-1.58,4.1-2.37l0.47-0.32L367.99,479.94
			L367.99,479.94z"/>
		<path class="st0" d="M212.72,492.25c-1.26,1.89-2.52,3.63-3.79,5.52l-6.15-4.26l-3.79,5.21l-6.31-4.42
			c1.1-1.89,2.37-3.79,3.79-5.52l6.15,4.26l3.63-5.21C206.73,487.83,212.41,491.78,212.72,492.25z"/>
		<path class="st0" d="M484.29,460.85l-0.47-0.63c-0.47-0.47-0.79-0.95-1.26-1.42c-0.32-0.32-0.63-0.47-0.95-0.63
			c-0.63-0.32-1.26-0.16-1.74,0.32c-0.47,0.47-0.79,1.1-0.95,1.74c-0.32,1.1-0.63,2.37-0.79,3.63c-0.32,2.05-0.47,3.94-0.79,6
			c-0.16,1.42-0.47,2.84-1.1,4.26c-0.16,0.32-0.16,0.63-0.47,0.79c-0.16,0.16-0.32,0.32-0.47,0.47c-0.32,0-0.32-0.47-0.47-0.79
			c-0.47-1.26-0.79-2.68-1.1-3.94c-0.47-2.05-1.26-3.94-2.21-5.84c-0.32-0.47-0.63-0.95-0.95-1.58l-0.79,0.95h-0.32l-3.79-2.37
			c-0.32-0.16-0.47-0.47-0.47-0.79c0-0.95,0.16-1.89,0.47-2.68v-0.32c0.16-0.79,0.95-1.26,1.74-1.1c0.16,0,0.16,0,0.32,0.16
			c1.89,0.63,3.47,1.89,4.42,3.47c0.79,1.1,1.42,2.37,1.74,3.63c0.79,1.89,1.42,3.94,1.89,5.84c0,0.16,0.16,0.32,0.16,0.47
			c0-0.32,0.16-0.63,0.16-0.95l0.79-6c0.16-1.74,0.47-3.47,1.1-5.21c0.32-0.95,0.79-1.74,1.42-2.52c0.32-0.32,0.63-0.63,0.95-0.95
			c0.63-0.47,1.58-0.47,2.21,0c0.32,0.16,0.47,0.32,0.79,0.63c0.47,0.47,0.95,1.1,1.42,1.58c0.32,0.32,0.32,0.79,0.16,1.26
			c-0.16,0.79-0.32,1.42-0.63,2.21C484.45,460.53,484.29,460.69,484.29,460.85z"/>
		<path class="st0" d="M432.06,488.15c-0.95,1.89-2.05,3.79-3.31,5.52l-6.31-4.26l-0.32,0.47l-2.52,3.94
			c-0.16,0.32-0.32,0.47-0.47,0.63l-0.47-0.32l-5.52-3.63h-0.16c-0.47-0.32-0.47-0.47,0-0.79l2.52-3.94l0.32-0.47
			c0.32-0.47,0.32-0.47,0.63,0l3.94,2.52c0.63,0.47,1.42,0.95,2.05,1.42l0.32-0.32l2.68-4.1l0.32-0.47
			C427.8,485.46,430.01,486.88,432.06,488.15z"/>
		<path class="st0" d="M488.71,513.71c-0.16-0.32-0.16-0.63-0.32-0.95c-0.63-2.21-1.26-4.42-2.05-6.63
			c-0.47-1.1-0.95-2.21-1.58-3.31l-0.63-0.79l-0.63,0.95h-0.32l-3.63-2.37c-0.32-0.16-0.47-0.47-0.47-0.79
			c0-0.95,0.32-1.89,0.47-2.68c0-0.16,0-0.32,0-0.47c0.16-0.63,0.95-0.95,1.58-0.79l0,0c1.1,0.32,2.21,0.95,3.16,1.74
			c1.1,1.1,1.89,2.37,2.52,3.79c0.95,2.05,1.74,4.26,2.21,6.63v0.47c0-0.16,0-0.32,0-0.47c0.16-1.58,0.47-3.31,0.63-4.89
			c0.16-1.74,0.47-3.63,0.95-5.37c0.32-1.1,0.79-2.21,1.42-3c0.32-0.47,0.79-0.79,1.26-1.26c0.63-0.47,1.42-0.47,1.89,0
			c0.95,0.63,1.74,1.42,2.21,2.52c0,0.16,0,0.47,0,0.63c-0.16,0.95-0.47,1.74-0.63,2.68c0,0,0,0,0,0.16l-0.32-0.32
			c-0.32-0.47-0.63-0.79-0.95-1.26c-0.32-0.32-0.79-0.63-1.1-0.79c-0.47-0.32-1.1-0.16-1.58,0.16c-0.47,0.47-0.79,0.95-0.95,1.58
			c-0.47,1.42-0.63,2.68-0.79,4.1c-0.32,2.21-0.47,4.58-0.95,6.63c-0.16,0.95-0.47,1.89-0.95,2.84
			C489.02,513.08,489.02,513.39,488.71,513.71z"/>
		<path class="st0" d="M393.08,498.56l-0.32-0.32l-0.79-0.95c-0.16-0.32-0.47-0.47-0.79-0.63c-0.47-0.47-1.42-0.47-1.89,0.16
			l-0.16,0.16c-0.32,0.47-0.47,0.79-0.63,1.26c-0.32,1.26-0.63,2.52-0.79,3.94c-0.32,1.89-0.47,3.63-0.79,5.52
			c-0.16,0.95-0.47,1.89-0.95,2.84c-0.16,0.32-0.32,0.47-0.63,0.63c-0.16-0.16-0.16-0.47-0.32-0.79c-0.47-2.05-1.1-4.1-2.05-6.15
			c-0.32-0.95-0.79-1.89-1.42-2.84l-0.47-0.63l-0.63,0.79l-0.47-0.16l-3-1.89c-0.32-0.16-0.47-0.47-0.47-0.79
			c0-0.79,0.16-1.74,0.47-2.52c0.32-0.95,0.79-1.1,1.74-0.79c1.58,0.47,3,1.58,3.79,3c0.79,1.26,1.58,2.68,1.89,4.26
			c0.47,1.26,0.79,2.52,1.1,3.79c0,0.16,0.16,0.32,0.16,0.47c0-0.63,0.16-1.1,0.32-1.74c0.16-1.58,0.32-3.31,0.63-4.73
			c0.16-1.42,0.47-2.68,0.95-4.1c0.32-0.95,0.79-1.89,1.58-2.52c0.63-0.79,1.74-0.95,2.52-0.47c0.16,0.16,0.32,0.32,0.47,0.47
			c0.47,0.47,0.79,0.95,1.26,1.42c0.32,0.32,0.32,0.79,0.16,1.1C393.56,497.14,393.4,497.93,393.08,498.56L393.08,498.56z"/>
		<path class="st0" d="M176.59,493.99c0-0.95,0.32-2.05,0.47-3c0.32-1.89,0.47-3.63,0.79-5.52c0.16-0.95,0.47-1.89,0.95-2.84
			c0.32-0.79,0.95-1.42,1.58-2.05c0.63-0.63,1.58-0.63,2.21,0c0.63,0.47,1.26,1.26,1.74,1.89c0.16,0.16,0.16,0.47,0.16,0.63
			c-0.16,0.95-0.32,1.74-0.63,2.68l-0.47-0.32c-0.32-0.47-0.63-0.79-0.95-1.1s-0.63-0.63-0.95-0.79c-0.47-0.32-1.1-0.16-1.42,0.16
			c-0.47,0.47-0.79,0.95-0.95,1.42c-0.32,1.26-0.63,2.52-0.79,3.79c-0.32,2.05-0.47,4.1-0.95,6.15c-0.16,0.95-0.47,1.74-0.79,2.68
			c-0.16,0.32-0.32,0.47-0.63,0.63c0-0.16-0.16-0.47-0.32-0.63c-0.47-2.05-1.1-4.26-2.05-6.15c-0.32-0.95-0.79-1.89-1.42-2.84
			c-0.16-0.16-0.32-0.47-0.47-0.63l-0.63,0.79c-0.16,0-0.32-0.16-0.32-0.16l-3.31-2.05c-0.32-0.16-0.47-0.47-0.47-0.79
			c0-0.95,0.16-1.74,0.47-2.52c0.32-0.79,0.79-0.95,1.58-0.79c1.58,0.47,3,1.58,3.79,3c0.79,1.26,1.58,2.84,2.05,4.26
			c0.47,1.26,0.79,2.52,1.1,3.79c0,0.16,0,0.32,0,0.47L176.59,493.99z"/>
		<path class="st0" d="M264.79,461.95l-0.32-0.47c-0.32-0.47-0.63-0.79-1.1-1.26c-1.1-1.1-2.05-0.95-2.84,0.47
			c-0.16,0.47-0.47,0.95-0.47,1.42c-0.32,1.58-0.63,3.16-0.79,4.89c-0.16,2.05-0.47,3.94-1.1,5.84c-0.16,0.47-0.32,0.79-0.47,1.26
			c-0.16,0.16-0.32,0.47-0.47,0.63c0-0.32-0.16-0.63-0.32-0.79c-0.47-2.05-1.26-4.1-2.05-6.15c-0.47-0.95-0.95-1.89-1.42-2.84
			c-0.16-0.32-0.32-0.47-0.47-0.63l-0.63,0.95l-0.47-0.32c-0.95-0.63-2.05-1.26-3-1.89c-0.32-0.16-0.47-0.47-0.47-0.95
			c0-0.79,0.16-1.74,0.47-2.52s0.79-1.1,1.74-0.79c1.58,0.47,3,1.58,3.79,3c0.79,1.26,1.58,2.84,2.05,4.26
			c0.47,1.26,0.79,2.52,1.1,3.79c0,0.16,0.16,0.32,0.16,0.32c0-0.47,0.16-0.79,0.32-1.26c0.16-1.74,0.47-3.63,0.63-5.37
			c0.16-1.26,0.47-2.68,0.95-3.94c0.32-0.95,0.79-1.89,1.58-2.52c0.63-0.79,1.74-0.95,2.37-0.47c0.16,0.16,0.32,0.32,0.47,0.47
			c0.47,0.47,0.95,0.95,1.26,1.42c0.32,0.32,0.32,0.79,0.32,1.26c-0.16,0.79-0.32,1.58-0.63,2.21H264.79z"/>
		<path class="st0" d="M335.64,470.79c0-0.32-0.16-0.63-0.32-0.95c-0.47-2.05-1.1-3.94-1.89-5.84c-0.32-0.95-0.79-2.05-1.42-2.84
			l-0.47-0.63l-0.63,0.79l-0.47-0.32l-3-1.89c-0.32-0.16-0.47-0.47-0.47-0.79c0-0.79,0.16-1.74,0.47-2.52
			c0.16-0.63,0.79-1.1,1.42-0.95c0.16,0,0.16,0,0.32,0.16c1.58,0.47,3,1.58,3.79,3c0.95,1.26,1.58,2.68,2.05,4.26
			c0.47,1.26,0.79,2.52,1.1,3.79c0,0.16,0.16,0.16,0.16,0.32c0-0.47,0.16-0.95,0.32-1.42c0.16-1.74,0.47-3.63,0.63-5.37
			c0.16-1.26,0.47-2.68,0.95-3.79c0.32-0.95,0.79-1.74,1.42-2.37c0.16-0.16,0.47-0.47,0.79-0.63c0.47-0.32,1.1-0.32,1.58,0
			c0.79,0.63,1.58,1.26,2.05,2.21c0,0.16,0,0.47,0,0.63c0,0.79-0.32,1.58-0.63,2.37l0,0l-0.32-0.32c-0.32-0.47-0.79-0.95-1.1-1.26
			c-1.1-1.1-2.05-0.95-2.84,0.47c-0.32,0.79-0.63,1.58-0.79,2.37c-0.32,1.58-0.47,3.31-0.63,4.73c-0.16,1.74-0.47,3.31-0.95,5.05
			c-0.16,0.32-0.32,0.79-0.47,1.1c-0.16,0.16-0.32,0.32-0.47,0.63H335.64z"/>
		<path class="st0" d="M395.76,464.79c0-0.63,0.16-1.1,0.32-1.58c0.16-1.58,0.32-3.31,0.63-4.73c0.16-1.42,0.47-2.84,0.95-4.1
			c0.32-0.95,0.79-1.89,1.58-2.68c0.63-0.79,1.74-0.95,2.52-0.47c0.16,0.16,0.32,0.32,0.47,0.47c0.47,0.47,0.95,0.95,1.26,1.58
			c0.32,0.32,0.32,0.79,0.16,1.1c-0.16,0.79-0.32,1.58-0.63,2.37l-0.32-0.32c-0.32-0.32-0.63-0.79-0.95-1.1
			c-0.32-0.32-0.63-0.63-0.95-0.79c-0.47-0.32-1.26-0.16-1.58,0.32c-0.47,0.47-0.79,0.95-0.79,1.42c-0.32,1.1-0.47,2.05-0.63,3.31
			c-0.32,2.05-0.63,4.1-0.95,6.31c-0.16,0.95-0.47,1.74-0.79,2.68c0,0.32-0.32,0.47-0.63,0.63c0-0.32,0-0.47-0.16-0.79
			c-0.47-2.05-1.26-4.1-2.05-6.15c-0.47-0.95-0.95-1.89-1.42-2.84c-0.16-0.32-0.32-0.47-0.47-0.63l-0.63,0.79l-0.47-0.32l-3-1.89
			c-0.32-0.16-0.63-0.47-0.47-0.95l0.32-1.74c0-0.16,0-0.32,0-0.47c0.32-1.1,0.79-1.26,1.89-0.95c1.58,0.47,2.84,1.58,3.63,2.84
			c0.79,1.26,1.58,2.68,2.05,4.26c0.47,1.26,0.79,2.52,1.1,3.79v0.47L395.76,464.79z"/>
		<path class="st0" d="M417.38,464.64c-0.63-0.95-1.42-1.58-2.52-2.05v0.16c-2.21,3.94-4.89,7.57-8.36,10.57
			c-2.05,1.89-4.26,3.63-6.63,5.21l-2.84,1.89l-0.47,0.32l0,0v-0.32l0.63-0.63c2.21-1.89,4.26-3.79,6.63-5.68
			c2.05-1.89,4.1-3.94,5.84-6.15c1.26-1.42,2.37-3,3.47-4.42c0.32-0.47,0.63-0.95,0.95-1.42l-0.47-0.32l-1.89-1.26
			c-1.42-0.95-2.05-2.68-1.58-4.26c0.32-1.42,1.1-2.68,2.21-3.79c0.32-0.32,0.63-0.47,1.1-0.63c0.79-0.32,1.89,0,2.37,0.79
			c0.32,0.63,0.63,1.26,0.63,2.05c0.16,1.42,0,3-0.32,4.42c0,0,0,0.32,0,0.63c0.16,0,0.32,0.16,0.47,0.32
			c0.47,0.32,0.79,0.63,1.1,0.95c0.47,0.47,0.63,1.1,0.47,1.74c0,0.47-0.16,0.95-0.32,1.58
			C417.7,464.48,417.54,464.64,417.38,464.64z M415.02,459.27c0-0.79,0-1.58,0-2.21c0-0.47-0.16-0.95-0.47-1.26
			c-0.47-0.79-1.42-1.1-2.21-0.79c-0.16,0.16-0.32,0.32-0.47,0.47c-0.63,0.63-0.63,0.95,0,1.58
			C412.81,457.85,413.75,458.64,415.02,459.27z"/>
		<path class="st0" d="M102.42,496.83c0-0.32,0-0.47,0.16-0.47c0.16-1.58,0.47-3.31,0.63-5.05c0.16-1.26,0.47-2.68,0.79-3.79
			c0.32-0.79,0.79-1.58,1.42-2.21c0.47-0.63,1.42-0.79,2.05-0.32c0.16,0,0.16,0.16,0.32,0.32c0.47,0.47,0.95,0.95,1.26,1.42
			c0.16,0.32,0.32,0.63,0.16,0.95l-0.47,1.58c0,0.16,0,0.32,0,0.47c-0.16-0.16-0.16-0.16-0.32-0.32c-0.32-0.32-0.47-0.63-0.79-0.79
			c-0.16-0.16-0.32-0.32-0.47-0.47c-0.47-0.47-1.1-0.63-1.74-0.32c-0.16,0.16-0.32,0.16-0.32,0.32c-0.32,0.47-0.47,0.95-0.63,1.42
			c-0.32,1.42-0.47,2.68-0.63,4.1c-0.16,1.74-0.47,3.63-0.95,5.37c0,0.32-0.32,0.63-0.47,0.95c-0.16,0.16-0.32,0.32-0.47,0.63
			c0-0.32-0.16-0.63-0.32-0.79c-0.47-1.58-0.95-3-1.42-4.58c-0.32-1.1-0.79-2.05-1.42-3l-0.47-0.79l-0.63,0.79l-0.47-0.16
			c-0.79-0.63-1.74-1.1-2.68-1.58c-0.32-0.16-0.47-0.47-0.32-0.79c0-0.63,0.16-1.42,0.47-2.05c0.16-0.63,0.79-0.95,1.58-0.79
			c1.42,0.47,2.52,1.42,3.31,2.68c0.63,1.1,1.26,2.21,1.58,3.31c0.32,1.1,0.63,2.21,0.95,3.31
			C102.27,496.35,102.42,496.51,102.42,496.83z"/>
		<path class="st0" d="M365.31,496.51l0.63,0.32l5.84,3.79h0.16c0.16,0.16,0.16,0.32,0,0.47l0,0l-3.31,5.05l-0.32,0.32l-0.47-0.32
			l-5.68-3.94l-0.32-0.16c-0.16-0.16-0.16-0.47,0-0.63v-0.16l3-4.42C364.99,496.83,365.15,496.67,365.31,496.51z"/>
		<path class="st0" d="M273,539.75c0,0.16,0,0.32,0,0.47c0,0.47-0.32,0.95-0.47,1.58c-0.16,0.47-0.47,0.79-0.79,0.95l-14.52,6.94
			c-2.05,1.1-4.26,2.21-6.31,3.31l-1.26,0.79c0-0.16,0.16-0.47,0.16-0.63l0.95-2.05c0.16-0.47,0.63-0.79,0.95-0.95l1.42-0.79
			l15.62-7.57c1.1-0.63,2.37-1.1,3.47-1.58l0.63-0.16L273,539.75z"/>
		<path class="st0" d="M376.83,543.38c0-0.16,0-0.32,0-0.47l0.95-2.05c0.16-0.47,0.63-0.79,0.95-1.1c0.47-0.16,0.79-0.47,1.26-0.63
			l15.62-7.57c1.26-0.63,2.37-1.1,3.63-1.74l0.63-0.16c0,0.16,0,0.32,0,0.63c-0.16,0.63-0.47,1.1-0.63,1.74
			c-0.16,0.32-0.32,0.47-0.63,0.63c-3.47,1.74-6.94,3.31-10.57,5.05c-3.47,1.74-6.94,3.47-10.41,5.37L376.83,543.38L376.83,543.38z"
			/>
		<path class="st0" d="M134.3,553.32c0,0,0-0.32,0.16-0.47c0.32-0.63,0.63-1.42,0.95-2.05c0.16-0.47,0.63-0.79,0.95-1.1l3-1.58
			c5.68-2.84,11.2-5.52,17.04-8.21l0.63-0.32h0.47l0,0c-0.32,0.79-0.47,1.58-0.79,2.21c-0.16,0.16-0.32,0.32-0.63,0.47l-8.99,4.26
			c-3.79,1.89-7.57,3.79-11.36,5.68L134.3,553.32L134.3,553.32z"/>
		<path class="st0" d="M385.35,468.11c0.16,0.16,0.32,0.47,0.16,0.79c0,0.79-0.32,1.74-0.63,2.52c-0.63,1.58-1.26,3.31-1.89,4.73
			c-0.32,0.95-0.63,1.89-0.79,2.84c-0.16,0.95-0.16,1.89,0.32,2.68c0.32,0.63,0.79,1.1,1.58,1.42c0.47,0.32,1.1,0,1.42-0.47v-0.16
			c0.32-0.63,0.63-1.26,0.79-1.89c0.16-0.16,0.16-0.32,0.32-0.47c0.16,0.16,0.32,0.32,0.16,0.63c-0.32,1.74-0.79,3.31-1.74,4.73
			c-0.32,0.47-0.63,0.79-1.1,1.26c-0.79,0.79-2.05,0.79-2.84-0.16l-0.16-0.16c-0.95-1.1-1.26-2.52-1.1-3.94
			c0.16-1.42,0.47-2.68,0.95-4.1l3-7.42c0.32-0.63,0.63-1.42,0.95-2.05C385.19,468.58,385.19,468.42,385.35,468.11z"/>
		<path class="st0" d="M282.31,495.88c0,0.16,0,0.47,0,0.63c-0.16,1.58-0.79,3.16-1.58,4.58c-0.32,0.47-0.79,0.95-1.26,1.42
			c-0.79,0.79-2.21,0.63-2.84-0.16c0,0,0-0.16-0.16-0.16c-0.95-1.1-1.26-2.52-1.1-3.94s0.47-2.84,0.95-4.1
			c0.95-2.52,2.05-5.05,3.16-7.57c0.32-0.63,0.63-1.42,0.79-2.05l0.32-0.47c0.16,0.16,0.32,0.47,0.16,0.79
			c-0.16,0.79-0.32,1.58-0.47,2.21c-0.63,1.58-1.26,3.31-1.89,4.73c-0.47,0.95-0.79,2.05-0.95,3s-0.16,1.89,0.32,2.84
			c0.32,0.79,0.95,1.26,1.74,1.42c0.47,0.16,1.1,0,1.26-0.47c0,0,0,0,0-0.16c0.16-0.63,0.47-1.1,0.63-1.74
			C281.68,496.35,281.99,496.04,282.31,495.88z"/>
		<path class="st0" d="M309.29,464.64c0,0.32,0,0.47,0,0.79c-0.16,0.79-0.32,1.42-0.47,2.21c-0.63,1.74-1.26,3.31-1.89,5.05
			c-0.32,0.95-0.63,1.89-0.79,2.84s-0.16,1.89,0.32,2.68c0.32,0.63,0.79,1.26,1.58,1.42c0.47,0.32,1.1,0,1.26-0.47v-0.16l0.95-2.05
			c0.16-0.16,0.32-0.32,0.47-0.47l0,0c0,0.16,0,0.32,0,0.63c-0.16,1.74-0.79,3.31-1.74,4.73c-0.32,0.47-0.63,0.95-1.1,1.26
			c-0.79,0.79-2.05,0.79-2.84,0l-0.16-0.16c-0.95-1.1-1.26-2.52-1.1-4.1c0.16-1.42,0.47-2.84,0.95-4.1c0.95-2.37,1.89-4.73,3-7.1
			l0.95-2.21c0-0.16,0.16-0.32,0.32-0.47L309.29,464.64z"/>
		<path class="st0" d="M108.73,470c0,0.16,0,0.32,0,0.47c-0.16,2.05-0.95,3.94-2.21,5.52c-0.16,0.32-0.47,0.47-0.79,0.79
			c-0.79,0.63-1.89,0.47-2.68-0.32c-0.63-0.79-1.1-1.58-1.26-2.68c-0.16-1.26,0-2.68,0.47-3.94c0.63-1.89,1.26-3.79,2.05-5.68
			l2.37-5.37c0-0.16,0-0.47,0.47-0.63c0.16,0.32,0.16,0.47,0,0.79c-0.16,0.79-0.32,1.58-0.47,2.21c-0.63,1.74-1.26,3.31-1.89,5.05
			c-0.32,0.95-0.63,1.89-0.79,2.84c-0.16,0.95-0.16,1.89,0.32,2.68c0.32,0.79,0.79,1.26,1.58,1.42c0.47,0.16,1.1,0,1.26-0.47v-0.16
			l0.95-2.05C108.42,470.32,108.42,470,108.73,470z"/>
		<path class="st0" d="M151.81,491.78c0,0.16,0,0.47,0,0.63c0,0.79-0.16,1.58-0.47,2.37l-2.05,5.05c-0.47,0.95-0.79,1.89-0.95,3
			c-0.16,0.79,0,1.74,0.32,2.52c0.32,0.79,0.95,1.26,1.58,1.42c0.47,0.16,1.1,0,1.26-0.47c0,0,0,0,0-0.16
			c0.32-0.63,0.63-1.42,0.95-2.05c0.16-0.16,0.32-0.32,0.47-0.47c0.32,0.32,0.16,0.63,0,0.95c-0.32,1.42-0.79,2.68-1.42,3.94
			c-0.32,0.47-0.63,0.95-1.1,1.42c-0.16,0.16-0.32,0.32-0.63,0.47c-0.79,0.47-1.89,0.32-2.52-0.32c-0.79-0.79-1.26-1.89-1.26-3
			c-0.16-1.42,0.16-2.84,0.63-4.26c0.79-2.52,1.89-4.89,3-7.26c0.47-0.95,0.79-2.05,1.26-3c0.16-0.16,0.16-0.47,0.32-0.63
			L151.81,491.78z"/>
		<path class="st0" d="M447.21,468.42c0,0.16,0,0.47,0,0.63c0,0.79-0.16,1.74-0.47,2.52l-1.89,4.73c-0.47,1.1-0.79,2.21-0.95,3.31
			c0,0.79,0,1.58,0.47,2.37c0.32,0.63,0.95,1.1,1.58,1.26c0.47,0.16,1.1,0,1.26-0.47c0,0,0,0,0-0.16c0.32-0.47,0.47-1.1,0.79-1.58
			c0.32-0.47,0.16-0.63,0.63-0.79c0.16,0.16,0.32,0.32,0.16,0.47c0,0.32,0,0.63,0,0.79c-0.32,1.1-0.63,2.21-1.26,3.31
			c-0.32,0.63-0.79,1.1-1.26,1.58c-0.79,0.79-2.05,0.95-3,0.16c-0.16-0.16-0.32-0.32-0.32-0.47c-0.95-1.1-1.26-2.68-0.95-4.1
			c0.16-1.42,0.47-2.68,0.95-3.94l3-7.42c0.32-0.63,0.63-1.42,0.95-2.05C446.89,468.42,446.89,468.42,447.21,468.42z"/>
		<path class="st0" d="M206.25,462.43c0,0.16,0,0.47,0,0.63c0,0.79-0.16,1.74-0.47,2.52c-0.63,1.74-1.26,3.31-1.89,5.05
			c-0.47,0.95-0.79,2.05-0.95,3.16c-0.16,0.79,0,1.74,0.47,2.37c0.32,0.63,0.79,1.1,1.42,1.26c0.47,0.32,1.26,0,1.42-0.47v-0.16
			c0.32-0.63,0.63-1.26,0.79-1.89c0.32-0.63,0-0.47,0.47-0.47c0,0.16,0,0.32,0,0.47c-0.16,2.05-1.1,4.1-2.37,5.68
			c-0.16,0.16-0.47,0.47-0.79,0.63c-0.79,0.47-1.89,0.32-2.52-0.32c-0.47-0.47-0.95-1.26-1.1-1.89c-0.32-1.1-0.32-2.21,0-3.31
			c0.32-1.58,0.79-3.16,1.42-4.58c1.1-2.52,2.21-5.05,3.31-7.57c0-0.16,0.16-0.32,0.32-0.47
			C205.94,462.74,206.09,462.58,206.25,462.43z"/>
		<path class="st0" d="M346.53,490.04c0,0.16,0,0.47,0,0.63c-0.16,1.74-0.79,3.31-1.74,4.73c-0.32,0.47-0.63,0.79-1.1,1.1
			c-0.79,0.79-2.05,0.79-2.84,0l-0.16-0.16c-0.63-0.79-1.1-1.89-1.1-2.84c-0.16-1.26,0-2.52,0.47-3.63c0.47-1.58,1.1-3,1.74-4.58
			c0.79-2.05,1.74-4.1,2.68-6.15c0-0.32,0.16-0.63,0.47-0.79c0.16,0,0.32,0.32,0.16,0.47c0,0.63-0.16,1.26-0.32,1.89
			c-0.32,0.95-0.79,2.05-1.1,3l-1.42,3.63c-0.16,0.63-0.47,1.42-0.63,2.05c-0.16,0.95,0,1.74,0.32,2.68
			c0.32,0.63,0.95,1.1,1.58,1.26c0.47,0.16,1.1,0,1.26-0.47c0,0,0,0,0-0.16c0.16-0.63,0.47-1.1,0.79-1.74
			C345.9,490.51,346.22,490.2,346.53,490.04z"/>
		<path class="st0" d="M509.38,491.93c0,0.16,0,0.47,0,0.63c-0.16,1.26-0.63,2.52-1.26,3.63c-0.32,0.47-0.63,0.95-1.1,1.42
			c-0.79,0.79-1.89,0.79-2.68,0c-0.16-0.16-0.16-0.16-0.16-0.32c-0.63-0.79-0.95-1.74-0.95-2.84c0-0.95,0.16-2.05,0.47-3
			c0.63-1.89,1.26-3.79,2.05-5.52l1.89-4.42c0-0.32,0.16-0.63,0.47-0.79c0.16,0,0.16,0.47,0.16,0.63c0,0.79-0.16,1.58-0.47,2.37
			c-0.63,1.42-1.26,3-1.74,4.42c-0.32,0.79-0.63,1.58-0.79,2.52c-0.16,0.79-0.16,1.74,0.16,2.37c0.32,0.63,0.79,1.26,1.58,1.42
			c0.47,0.16,0.95,0,1.26-0.47c0,0,0,0,0-0.16c0.32-0.63,0.47-1.26,0.79-1.89l0.32-0.47L509.38,491.93z"/>
		<path class="st0" d="M475.77,504.72c0.16,0,0,0.32,0,0.63c0,0.79-0.16,1.58-0.47,2.37c-0.63,1.42-1.26,3-1.74,4.42
			c-0.32,0.79-0.47,1.74-0.79,2.52c-0.16,0.79-0.16,1.74,0.16,2.37c0.16,0.63,0.79,1.26,1.58,1.42c0.47,0.16,1.1,0,1.26-0.47l0,0
			c0.32-0.63,0.47-1.26,0.79-1.89c0.16-0.16,0.16-0.32,0.32-0.47l0,0c0,0.16,0,0.47,0,0.63c-0.32,1.42-0.79,2.84-1.58,4.1
			c-0.32,0.47-0.63,0.79-1.1,1.26c-0.79,0.63-1.89,0.63-2.68-0.16l-0.16-0.16c-0.63-0.79-1.1-1.89-1.1-2.84s0.16-2.05,0.47-3
			c0.47-1.58,1.1-3,1.58-4.42c0.63-1.42,1.58-3.63,2.37-5.52C475.45,505.03,475.61,504.72,475.77,504.72z"/>
		<path class="st0" d="M511.74,535.64l-0.79-0.63c-0.63-0.47-0.95-1.26-0.79-2.05c0.32-1.42,1.26-2.52,2.37-3.31
			c0.47-0.32,0.79-0.63,1.26-0.79c0.16-0.16,0.47-0.16,0.79-0.32c0.63,0,0.95,0,0.95,0.79c0,0.63-0.16,1.26-0.47,1.74
			c-0.16,0.16-0.16,0.32-0.32,0.63l-0.32-0.63c-0.16-0.47-0.47-0.63-0.95-0.47c-0.47,0.16-0.95,0.47-1.42,0.63
			c-0.16,0.16-0.32,0.32-0.16,0.47c0.16,0.16,0.16,0.47,0.32,0.63c0.16,0.32,0.47,0.47,0.79,0.79c0.63,0.63,1.74,0.63,2.52,0.16
			c0.63-0.32,1.42-0.63,2.05-0.95l0.95-0.47c0,0.16,0,0.32,0,0.47l-0.47,1.42c-0.16,0.32-0.32,0.63-0.63,0.63
			c-1.89,0.95-3.63,1.89-5.52,2.84c-0.79,0.47-1.42,0.95-2.21,1.42l0,0c0-0.63,0.16-1.42,0.47-2.05c0.16-0.16,0.32-0.47,0.63-0.63
			L511.74,535.64z"/>
		<path class="st0" d="M160.33,454.69c0,0.16,0,0.47,0,0.63c-0.16,0.63-0.32,1.42-0.47,2.05c-0.47,1.42-1.1,2.84-1.58,4.1
			c-0.32,0.63-0.47,1.42-0.63,2.21s-0.16,1.74,0.16,2.37c0.16,0.63,0.79,1.1,1.42,1.26c0.47,0.16,0.95,0,1.1-0.47l0,0
			c0.16-0.47,0.47-1.1,0.63-1.58c0.16-0.16,0.16-0.32,0.32-0.47l0,0c0,0.16,0,0.32,0,0.47c-0.16,1.42-0.63,2.68-1.42,3.94
			c-0.32,0.32-0.47,0.79-0.95,0.95c-0.79,0.63-1.89,0.63-2.52-0.16c0,0,0,0-0.16-0.16c-0.63-0.79-0.95-1.74-0.95-2.84
			c0-0.95,0.16-1.74,0.47-2.68c0.63-1.89,1.42-3.94,2.21-5.68c0.47-1.26,0.95-2.37,1.58-3.47c0.16-0.16,0.16-0.47,0.32-0.63
			L160.33,454.69z"/>
		<path class="st0" d="M96.9,501.4c0,0.16,0,0.32,0,0.63c-0.16,0.63-0.16,1.26-0.47,2.05c-0.47,1.42-1.1,2.84-1.58,4.26
			c-0.32,0.79-0.63,1.74-0.79,2.68c0,0.63,0,1.42,0.32,2.05c0.32,0.63,0.79,0.95,1.42,1.1c0.47,0.16,0.95,0,1.1-0.47l0,0
			c0.16-0.47,0.32-0.95,0.63-1.26c0.16-0.32,0.32-0.63,0.63-0.79c0,0.16,0,0.32,0,0.32c0,0.16,0,0.47,0,0.63
			c-0.32,1.1-0.63,2.05-1.1,3c-0.32,0.63-0.63,1.1-1.1,1.42c-0.63,0.63-1.74,0.63-2.52,0c0,0-0.16-0.16-0.16-0.32
			c-0.63-0.79-0.95-1.74-0.95-2.68s0.16-1.74,0.47-2.52c0.63-2.05,1.58-4.1,2.37-6.15l1.26-3c0.16-0.16,0.16-0.47,0.32-0.63
			L96.9,501.4z"/>
		<path class="st0" d="M498.96,463.53c0.16,0.32,0.16,0.63,0,0.95c-0.16,1.1-0.63,2.05-1.1,3c-0.32,0.47-0.63,0.95-1.1,1.42
			c-0.63,0.63-1.58,0.79-2.37,0.16c-0.16-0.16-0.16-0.16-0.32-0.32c-0.63-0.79-0.95-1.58-0.95-2.52s0.16-1.89,0.47-2.68
			c0.47-1.42,0.95-2.68,1.42-3.94l2.05-4.89c0-0.16,0.32-0.47,0.47-0.79c0.16,0.16,0.32,0.47,0.16,0.63
			c-0.16,0.63-0.32,1.26-0.47,2.05c-0.47,1.42-0.95,2.68-1.58,3.94c-0.32,0.79-0.63,1.74-0.79,2.52s0,1.58,0.32,2.21
			c0.32,0.63,0.79,0.95,1.42,1.1c0.47,0.16,0.79,0,0.95-0.47l0,0l0.63-1.58C498.65,463.85,498.8,463.69,498.96,463.53z"/>
		<path class="st0" d="M277.73,452.64c0.16,0.32,0.16,0.79,0,1.1c-0.32,0.95-0.63,1.74-0.79,2.68c-0.32,0.79-0.79,1.89-1.1,2.84
			c-0.32,0.63-0.47,1.42-0.32,2.21c0,0.47,0.16,0.79,0.32,1.26c0.16,0.47,0.63,0.79,1.1,0.95c0.32,0.16,0.79,0,0.95-0.47l0,0
			c0.16-0.47,0.32-0.95,0.63-1.42c0.16-0.16,0.16-0.32,0.32-0.47l0,0c0,0.16,0,0.32,0,0.47c-0.16,1.1-0.47,2.05-1.1,3
			c-0.16,0.47-0.47,0.79-0.95,1.1c-0.63,0.63-1.58,0.63-2.05,0l-0.16-0.16c-0.47-0.63-0.79-1.26-0.79-2.05
			c-0.16-0.95,0-1.74,0.32-2.52c0.47-1.26,0.79-2.37,1.26-3.63c0.47-1.26,1.26-2.84,1.89-4.26c0-0.16,0.16-0.47,0.32-0.63
			L277.73,452.64L277.73,452.64z"/>
		<path class="st0" d="M429.53,450.75c0,0.16,0,0.32,0,0.63c-0.16,0.63-0.16,1.1-0.47,1.74c-0.47,1.1-0.79,2.21-1.26,3.31
			c-0.16,0.63-0.47,1.1-0.63,1.74c-0.16,0.63-0.16,1.42,0,2.05c0.16,0.47,0.63,0.95,1.1,1.1s0.95,0,1.1-0.32c0,0,0,0,0-0.16
			c0.16-0.32,0.32-0.79,0.47-1.1c0.16-0.16,0.16-0.32,0.32-0.47l0,0c0,0.16,0,0.47,0,0.63c-0.16,1.1-0.47,2.05-1.1,3
			c-0.32,0.32-0.47,0.63-0.95,0.95c-0.63,0.47-1.42,0.47-1.89-0.16c0,0,0,0,0-0.16c-0.47-0.63-0.79-1.26-0.79-2.05
			c0-0.79,0-1.58,0.32-2.37c0.32-1.1,0.79-2.21,1.26-3.31c0.47-1.1,1.26-2.84,1.89-4.26C428.9,450.91,429.22,450.75,429.53,450.75z"
			/>
		<g>
			<path class="st0" d="M430.51,96.53c-35.49-35.5-82.69-55.04-132.87-55.04s-97.38,19.54-132.87,55.04
				c-35.5,35.49-55.04,82.69-55.04,132.87s19.54,97.38,55.04,132.87c35.49,35.5,82.68,55.04,132.87,55.04s97.39-19.54,132.87-55.04
				c35.5-35.49,55.04-82.68,55.04-132.87S466.01,132.03,430.51,96.53z M425.15,356.93c-34.06,34.06-79.34,52.82-127.51,52.82
				c-48.17,0-93.45-18.76-127.51-52.82s-52.82-79.34-52.82-127.51s18.76-93.45,52.82-127.51s79.34-52.82,127.51-52.82
				c48.16,0,93.45,18.75,127.51,52.82c34.06,34.06,52.82,79.34,52.82,127.51C477.97,277.59,459.21,322.87,425.15,356.93z"/>
			<path class="st0" d="M297.68,175.52l-0.05,0.04l-0.05-0.04c0,0-36.93-34.38-66.77-23.55c0,0,23.62-3.31,60.75,28.51l0.01,0
				l-11.22,9.1l-0.08-0.1c-1.39-1.76-1.63-2.6-1.54-2.96c0.98-0.09,2.04-0.35,2.6-0.78c1.17-0.93,1.28-2.79,0.22-4.13
				c-1.06-1.35-2.88-1.69-4.05-0.76c-0.51,0.4-0.9,1.2-1.04,1.55c-1.74,3.97-1.35,6.95,0.7,9.54c0.02,0.02,0.06,0.07,0.12,0.14
				l-3.14,2.56c-4.39,3.51-5.9-1.98-5.9-1.98c-1.89-4.65-7.09-1.74-7.09-1.74c-5.63,2.92-2.89,6.78-2.89,6.78
				c6.77,13.14,19.58,3.2,19.58,3.2l3.95-3.11c0.13,0.16,0.21,0.26,0.24,0.31c2.05,2.59,4.86,3.66,9.13,2.89
				c0.39-0.06,1.25-0.25,1.76-0.66c1.17-0.93,1.27-2.77,0.21-4.12c-1.06-1.35-2.89-1.68-4.06-0.75c-0.56,0.44-1.07,1.43-1.38,2.35
				c-0.38,0.01-1.14-0.41-2.52-2.18l-0.24-0.31l12.73-10.05l12.73,10.05l-0.24,0.31c-1.39,1.76-2.15,2.19-2.53,2.18
				c-0.31-0.92-0.82-1.91-1.38-2.35c-1.17-0.93-3-0.6-4.06,0.75c-1.06,1.35-0.97,3.19,0.21,4.12c0.51,0.4,1.37,0.6,1.76,0.66
				c4.27,0.77,7.08-0.3,9.13-2.89c0.03-0.05,0.12-0.15,0.24-0.31l3.95,3.11c0,0,12.81,9.94,19.58-3.2c0,0,2.74-3.86-2.89-6.78
				c0,0-5.2-2.91-7.09,1.74c0,0-1.52,5.49-5.9,1.98l-3.14-2.56c0.06-0.07,0.09-0.12,0.12-0.14c2.05-2.59,2.44-5.57,0.7-9.54
				c-0.14-0.36-0.53-1.15-1.04-1.55c-1.17-0.93-2.99-0.59-4.05,0.76c-1.06,1.35-0.96,3.2,0.22,4.13c0.56,0.44,1.62,0.69,2.6,0.78
				c0.09,0.36-0.15,1.2-1.54,2.96l-0.08,0.1l-11.21-9.1l0.01-0.01c37.13-31.83,60.75-28.51,60.75-28.51
				C334.62,141.14,297.68,175.52,297.68,175.52z"/>
			<path class="st0" d="M281.71,87.62c0,0-19.23,5.41-10.04,22.41c0,0-0.49-14.09,10.58-17.28c0,0-14.57,11.55-1.44,21.29
				c0,0-2.7-10.95,4.9-15.94c0,0-5.39,12.28,5.11,22.63c0,0-2.44-10.51,4.62-16.29v53.27l-4.03,5.16h12.5l-3.78-5.16v-53.27
				c6.65,5.78,4.59,16.29,4.59,16.29c10.5-10.35,5.1-22.63,5.1-22.63c7.62,5,4.89,15.94,4.89,15.94
				c13.12-9.75-1.44-21.29-1.44-21.29c11.07,3.19,10.58,17.28,10.58,17.28c9.2-17-10.04-22.41-10.04-22.41
				c8.99-1.32,15.04,9.7,15.04,9.7c-1.17-17.66-20.06-15.04-20.06-15.04c4.79-3.74,14.49,1,14.49,1
				c-7.06-9.83-17.16-7.02-17.16-7.02c1.21-2.27,8.46-1.77,8.46-1.77c-6.58-6.42-14.27,0.02-14.27,0.02
				c0.37-3.54-2.68-9.09-2.68-9.09s-2.92,5.55-2.56,9.09c0,0-7.63-6.46-14.22-0.02c0,0,7.27-0.49,8.5,1.77
				c0,0-10.09-2.81-17.15,7.02c0,0,9.71-4.74,14.5-1c0,0-18.89-2.61-20.06,15.04C266.65,97.32,272.71,86.3,281.71,87.62z"/>
			<path class="st0" d="M343.16,297.39c0.77,0.09,1.63-0.16,2.59-0.76c0.38-0.24,0.86-0.59,1.43-1.06
				c-0.21-0.28-0.82-1.09-1.83-2.45c-0.45,0.64-0.9,1.38-1.34,2.22C343.58,296.17,343.3,296.86,343.16,297.39z"/>
			<path class="st0" d="M370.38,275.5c0.71-0.31,1.83-1.51,3.37-3.58l-1.02-0.22c-1.28-0.26-2.11-0.37-2.47-0.3
				c-0.33,0.03-0.59,0.17-0.76,0.4c-0.26,0.36-0.31,0.9-0.15,1.63c0.16,0.74,0.47,1.44,0.93,2.1L370.38,275.5z"/>
			<path class="st0" d="M377.57,264.99c0.66-0.4,1.6-1.74,2.83-3.99l-1.05-0.08c-1.3-0.09-2.13-0.08-2.49,0.03
				c-0.32,0.08-0.55,0.25-0.69,0.51c-0.21,0.38-0.18,0.93,0.08,1.63c0.26,0.7,0.67,1.36,1.21,1.95L377.57,264.99z"/>
			<path class="st0" d="M214.13,248.61c-0.53-0.59-1.15-1.17-1.88-1.78c-0.72-0.61-1.32-1.04-1.82-1.28
				c-0.25,0.74-0.2,1.63,0.18,2.69c0.15,0.44,0.39,0.98,0.71,1.62C211.66,249.73,212.59,249.3,214.13,248.61z"/>
			<path class="st0" d="M191.18,231.68c6.58,52.94,51.74,93.9,106.46,93.9s99.87-40.98,106.46-93.9h-33.4
				c-6.3,34.63-36.61,60.88-73.06,60.88s-66.76-26.25-73.06-60.88L191.18,231.68L191.18,231.68z M218.86,243.62
				c0.17-0.36,0.31-0.61,0.43-0.78l0.2-0.26c0.79,0.3,1.51,0.62,2.12,0.99c-0.33,0.94-0.62,1.55-0.84,1.84
				c0.68,0.28,1.28,0.56,1.81,0.86c-0.35,0.94-0.68,1.66-1.01,2.13c-0.33-0.07-0.67-0.2-1.02-0.37c-0.36-0.17-0.63-0.32-0.82-0.45
				l-0.29-0.18c0.21-0.64,0.47-1.24,0.82-1.78c-0.29-0.09-0.58-0.22-0.87-0.37c-0.3-0.15-0.52-0.29-0.68-0.4l-0.23-0.16
				C218.56,244.32,218.7,243.96,218.86,243.62z M214.68,272.07c-0.32-0.02-0.66-0.07-1-0.16c-0.35-0.09-0.61-0.17-0.81-0.25
				l-0.31-0.1c0.05-0.62,0.17-1.22,0.39-1.8c-0.29-0.05-0.58-0.09-0.87-0.17c-0.3-0.08-0.52-0.15-0.67-0.22l-0.24-0.09
				c0.02-0.33,0.08-0.68,0.16-1.02c0.08-0.35,0.16-0.61,0.24-0.81l0.12-0.25c0.78,0.1,1.5,0.25,2.13,0.45
				c-0.14,0.92-0.26,1.53-0.41,1.88c0.66,0.1,1.25,0.24,1.81,0.41C215.09,270.86,214.91,271.58,214.68,272.07z M297.74,317.84
				c-0.25,0.24-0.47,0.43-0.64,0.54l-0.25,0.2c-0.49-0.37-0.93-0.81-1.3-1.3c-0.2,0.22-0.39,0.44-0.62,0.64
				c-0.22,0.21-0.4,0.36-0.54,0.45l-0.21,0.15c-0.26-0.21-0.53-0.44-0.77-0.69c-0.24-0.25-0.41-0.46-0.52-0.63l-0.17-0.23
				c0.51-0.6,1.02-1.12,1.53-1.54c0.72,0.61,1.17,1.06,1.35,1.35c0.44-0.49,0.87-0.93,1.32-1.3c0.72,0.6,1.23,1.14,1.51,1.62
				C298.22,317.34,298.01,317.6,297.74,317.84z M303.84,317.55c-0.26,0.3-0.48,0.52-0.66,0.67l-0.26,0.22
				c-0.32-0.2-0.62-0.43-0.91-0.69s-0.51-0.47-0.63-0.63l-0.2-0.24c0.51-0.69,1.02-1.29,1.54-1.77c0.81,0.6,1.39,1.13,1.76,1.58
				C304.33,316.96,304.11,317.25,303.84,317.55z M373.56,242.11l11.79,3.91c0.03,0.01,0.3,0.18,0.81,0.54
				c0.51,0.35,1.04,0.72,1.59,1.13c0.56,0.4,0.86,0.62,0.92,0.66l-0.3,0.91c-8.68-2.62-13.35-4.03-14.02-4.22l-0.98-2.34
				L373.56,242.11z M344.47,288.42l0.52-0.32l3.53,5.66c0.49,0.78,0.84,1.21,1.05,1.29c0.21,0.07,0.63-0.09,1.28-0.49l0.46-0.29
				l3.91-2.92l1.07-0.94c0.94-0.83,1.51-1.42,1.7-1.75c-0.56-0.55-1.42-1-2.53-1.35c-0.32-0.1-0.76-0.22-1.29-0.37
				c-0.54-0.15-0.97-0.26-1.29-0.36c-0.32-0.09-0.52-0.15-0.58-0.17c-0.14-0.05-0.37-0.53-0.71-1.45c-0.35-0.92-0.48-1.49-0.4-1.67
				l2.2-7.63l0.44,0.01l1.37,2.37l-1.91,5.95l3.99,1c1.56,0.38,2.73,0.54,3.49,0.51c0.76-0.05,1.46-0.35,2.11-0.92
				c0,0,1.96-2.22,2.28-2.73l-8.73-7.57l0.09-2.56l0.41-0.45l8,7.4c0.78,0.71,1.36,1.09,1.75,1.1c0.18,0,1.06-0.51,1.73-1.24
				c0.71-0.78,1.21-1.78,1.25-2.07c-0.94-0.9-1.66-2.06-2.12-3.5s-0.38-2.58,0.24-3.42c0.17-0.23,0.39-0.41,0.64-0.54
				c0.25-0.14,0.51-0.22,0.76-0.26c0.24-0.03,0.58-0.03,0.97,0c0.4,0.03,0.74,0.09,1.01,0.15c0.28,0.07,0.66,0.15,1.14,0.26
				c1.31,0.31,2.1,0.46,2.35,0.46c0.39-0.01,0.76-0.26,1.12-0.74l0.15-0.2l0.47-0.74c0.38-0.69,0.58-1.32,0.59-1.89
				c-1.06-0.76-1.92-1.81-2.58-3.18c-0.66-1.37-0.74-2.51-0.23-3.43c0.14-0.25,0.32-0.46,0.56-0.62c0.23-0.16,0.47-0.28,0.71-0.36
				c0.24-0.08,0.55-0.13,0.96-0.14c0.4-0.01,0.75-0.01,1.02,0.01c0.28,0.02,0.67,0.06,1.16,0.1c1.35,0.13,2.15,0.17,2.39,0.14
				c0.38-0.06,0.71-0.36,1-0.87l0.12-0.22c0,0,1.22-3.35,1.31-3.8l-8.46-3.15l-1.98-0.09l-1.24-3.19l0.55-0.44l1.12,0.45l2.56-0.24
				l0.72,1.54l6.08,2.46c0.44,0.17,1,0.87,1.74,2.14c0.7,1.22,1.1,2.05,1.2,2.5c0.05,0.3-0.1,0.87-0.45,1.72l-0.9,2.13
				c-0.32,0.58-0.69,0.97-1.14,1.2c-0.44,0.22-1,0.33-1.68,0.35l1.08,2.05c-0.36,0.61-0.81,1.28-1.33,1.98
				c-0.54,0.71-0.93,1.1-1.2,1.21c-0.1,0.06-0.6,0.07-1.47,0.02c0.44,0.47,0.68,0.94,0.75,1.42c0.07,0.47-0.07,1.01-0.4,1.62
				l-0.69,1.08l-0.4,0.55c-0.39,0.52-0.82,0.86-1.29,1.02c-0.47,0.16-1.04,0.2-1.72,0.12l0.79,2.18c-0.44,0.56-0.97,1.16-1.59,1.78
				c-0.62,0.63-1.07,0.98-1.35,1.04c-0.12,0.05-0.6-0.01-1.46-0.17c0.36,0.53,0.54,1.04,0.54,1.51c0,0.47-0.21,0.99-0.62,1.55
				l-0.63,0.75c-1.21,1.3-2.79,1.52-4.48,0.76c0.51,1.57,0.72,2.51,0.66,2.81c-0.06,0.3-1.9,2.43-1.9,2.43
				c-0.87,0.76-1.69,1.17-2.46,1.24c-0.77,0.07-1.93-0.07-3.5-0.41c0.51,2.07,0.69,3.22,0.54,3.48c-0.2,0.51-0.72,1.13-1.56,1.88
				l-0.68,0.6c-0.79,0.62-1.6,1.24-2.39,1.86c-0.63,0.45-1.27,0.9-1.9,1.35l-0.68,0.43c-1.42,0.89-2.87,0.53-4.35-1.07l0.03,2.42
				c-0.28,0.33-0.66,0.66-1.16,0.97c-0.68,0.43-1.32,0.64-1.93,0.66c-0.61,0.01-1.1-0.1-1.51-0.33c-0.22-0.14-0.47-0.55-0.78-1.24
				c-0.31-0.7-0.46-1.16-0.45-1.4c0.05-0.51,0.25-1.29,0.62-2.36c0.38-1.07,0.89-2.15,1.54-3.26l-0.64-0.86L344.47,288.42z
				 M338.81,286.92c1,0.13,1.66,0.28,1.99,0.43c0.13-0.72,0.28-1.37,0.45-1.95c0.99,0.13,1.76,0.31,2.29,0.53
				c0,0.35-0.05,0.7-0.14,1.08c-0.09,0.38-0.18,0.68-0.26,0.89l-0.14,0.33c-0.68-0.06-1.32-0.2-1.92-0.41
				c-0.02,0.3-0.08,0.61-0.16,0.93c-0.09,0.32-0.17,0.56-0.24,0.74l-0.1,0.25c-0.37-0.02-0.74-0.07-1.12-0.16
				c-0.38-0.08-0.66-0.16-0.85-0.24l-0.3-0.14C338.42,288.36,338.59,287.6,338.81,286.92z M332.69,289.61l0.55-0.26l5.4,11.19
				c0.01,0.02,0.07,0.35,0.17,0.96c0.1,0.61,0.2,1.25,0.29,1.92c0.1,0.68,0.16,1.05,0.17,1.1l-0.86,0.41
				c-4.16-8.05-6.39-12.37-6.72-12.99L332.69,289.61z M306.02,315.36c0.71,0.08,1.3,0.09,1.77,0.02c1.93-0.26,3.25-1.75,3.93-4.42
				c-0.37-0.54-1.06-1.67-2.08-3.36l1.35-2.18l0.47-0.07l0.69,1.77c0.47,1.16,0.87,1.89,1.21,2.18c0.33,0.29,0.87,0.38,1.62,0.28
				l4.97-1.14c0.3-0.08,0.52-0.15,0.66-0.21l-0.03-0.03l-3.33-2.06l-0.52,1.28l-0.66-0.22c0.14-2.27,0.45-3.61,0.96-4.02
				c0.33-0.25,0.93-0.58,1.83-0.97c0.9-0.39,1.77-0.7,2.64-0.94c0.97-0.26,1.9-0.41,2.79-0.44c0.89-0.03,1.49,0.06,1.77,0.26
				c0.16,0.2,0.3,0.59,0.41,1.19c0.12,0.6,0.16,1,0.14,1.21c-0.3,1.22-0.85,2.42-1.67,3.58l0.05-0.01l3.2-0.97l1.17-0.48
				c1.24-0.49,2.06-0.87,2.46-1.14l-3.61-8.26l-1.31-1.49l1.42-3.11l0.7,0.08l0.45,1.12l1.96,1.67l-0.61,1.6l2.45,6.07
				c0.18,0.44,0.08,1.32-0.31,2.68c-0.39,1.35-0.71,2.22-0.97,2.6c-0.18,0.24-0.7,0.53-1.54,0.87l-2.36,0.92
				c-1.97,0.55-3.7,0.58-5.15,0.09c-1.44,1.28-3.14,2.19-5.11,2.73l-2.43,0.43l-0.28,0.03c-0.69,0.1-1.42-0.15-2.18-0.75
				c0.03,0.44,0.01,0.97-0.08,1.59c-0.09,0.62-0.24,1.27-0.46,1.95c-0.22,0.67-0.55,1.27-1,1.76c-0.45,0.49-0.98,0.79-1.58,0.87
				c-0.29,0.05-0.96-0.18-2.01-0.67c-1.06-0.48-1.73-0.83-2-1.04L306.02,315.36z M282.58,296.89c0.66,0.76,1.05,1.3,1.2,1.63
				c0.58-0.45,1.12-0.84,1.63-1.15c0.66,0.76,1.1,1.4,1.36,1.92c-0.23,0.25-0.51,0.49-0.83,0.71c-0.33,0.22-0.59,0.38-0.79,0.48
				l-0.3,0.16c-0.47-0.49-0.86-1.02-1.16-1.59c-0.22,0.21-0.47,0.4-0.75,0.59c-0.28,0.18-0.49,0.31-0.67,0.39l-0.25,0.12
				c-0.25-0.26-0.51-0.55-0.72-0.86c-0.23-0.32-0.38-0.56-0.47-0.75l-0.14-0.3C281.34,297.71,281.97,297.25,282.58,296.89z
				 M277.59,307.96c0.23-0.72,0.43-1.17,0.6-1.35c0.37-0.35,1.05-0.79,2.04-1.35c0.99-0.55,2.1-1.02,3.31-1.42l0.09-1.07l2.2-1.08
				l0.61,0.1l-1.13,6.58c-0.16,0.91-0.18,1.46-0.08,1.66c0.1,0.2,0.53,0.36,1.28,0.48l0.54,0.09l5.47,0.37
				c0.79,0.01,1.46-0.02,1.96-0.12l0.96-3.51l1.73-1.06l0.47,0.15c-0.2,2.1-0.4,3.51-0.61,4.27c0.46,0.25,1.23,0.39,2.29,0.41
				l0.51-0.02c1.58-0.08,2.62-0.2,3.13-0.31c-0.14-0.62-0.33-1.35-0.59-2.15c-0.25-0.81-0.46-1.46-0.64-1.97l-0.25-0.74l1.74-1.95
				l0.59-0.03l1.19,2.85l0.03,0.4l-0.58,0.67c0.2,0.92,0.29,1.59,0.28,2.01c0,0.33-0.28,0.99-0.82,1.95
				c-0.55,0.96-0.97,1.53-1.27,1.72c-0.49,0.24-1.37,0.4-2.62,0.47l-0.72,0.02h-0.21c-1.53-0.03-2.75-0.64-3.64-1.83
				c-0.81,0.94-1.29,1.44-1.46,1.5c-0.31,0.15-0.86,0.21-1.67,0.2l-5.74-0.41l-0.78-0.14c-1.65-0.29-2.49-1.52-2.53-3.7l-1.59,1.83
				c-0.43,0.07-0.93,0.06-1.52-0.05c-0.79-0.14-1.43-0.4-1.89-0.79c-0.46-0.4-0.77-0.82-0.91-1.26
				C277.28,309.17,277.36,308.69,277.59,307.96z M276.23,294.83l0.59,0.17l-3.42,11.94c-0.01,0.03-0.17,0.31-0.51,0.83
				c-0.32,0.52-0.68,1.06-1.06,1.63c-0.38,0.58-0.58,0.89-0.61,0.94l-0.92-0.26c2.26-8.77,3.48-13.5,3.64-14.18L276.23,294.83z
				 M234.9,278.36c0.64,0.67,0.75,1.68,0.32,3.03c-0.43,1.35-1.15,2.59-2.18,3.74l0.85,0.89l1.45,1.46l3.38,2.64
				c0.24,0.18,0.43,0.32,0.55,0.4l0.01-0.05l-0.35-3.9l-1.33,0.35l-0.21-0.66c1.9-1.26,3.17-1.81,3.79-1.65
				c0.39,0.12,1.01,0.4,1.86,0.89c0.85,0.48,1.63,0.99,2.34,1.54c0.79,0.61,1.46,1.27,2.01,1.97c0.55,0.7,0.84,1.23,0.85,1.59
				c-0.06,0.24-0.29,0.6-0.7,1.05s-0.7,0.74-0.89,0.84c-1.15,0.48-2.43,0.76-3.86,0.81l0.03,0.02l3.04,2.36l0.89,0.78
				c0.6,0.31,1.17,0.58,1.72,0.79l1.81-1.62l1.67-0.18l0.32,0.43c-0.47,0.69-1.04,1.49-1.68,2.36c0.36,0.33,0.87,0.69,1.58,1.06
				c0.4,0.21,0.77,0.38,1.12,0.51l2.54-2.52l1.74-0.17l0.3,0.41c-0.49,0.82-1.25,1.91-2.27,3.28c0.37,0.39,0.9,0.76,1.6,1.13
				c0.39,0.21,0.89,0.43,1.49,0.66l1.32-3.35l2.42-0.43l0.54,0.29l-1.9,3.61c-0.22,0.41-0.3,0.71-0.25,0.9l2.85,1.16
				c0.24,0.1,0.49,0.18,0.75,0.24l1.23,0.3l2.81-8.57l0.01-1.98l3.13-1.37l0.46,0.53l-0.4,1.14l0.35,2.54l-1.55,0.79l-2.21,6.18
				c-0.16,0.45-0.84,1.05-2.03,1.8c-1.19,0.75-2,1.19-2.45,1.3c0,0-1.16,0.09-3.45-0.77c-0.61-0.32-1.04-0.7-1.28-1.15
				c-0.24-0.45-0.36-1.04-0.33-1.76c-0.6,0.47-1.14,0.72-1.61,0.77c-0.47,0.05-1.05-0.1-1.72-0.46c-0.6-0.31-1.05-0.68-1.35-1.09
				c-0.3-0.41-0.45-0.98-0.46-1.68c-0.56,0.38-1.08,0.59-1.54,0.61c-0.47,0.01-1.02-0.14-1.67-0.48c-0.59-0.31-1.02-0.67-1.32-1.07
				s-0.45-0.98-0.45-1.72c-0.62,0.33-1.16,0.53-1.61,0.58c-0.45,0.05-0.98-0.09-1.56-0.4l-1.32-1.06l-1.13-0.89
				c-1.61-1.27-2.67-2.62-3.15-4.07c-1.9-0.39-3.64-1.21-5.25-2.46l-1.01-0.78l-1.77-1.75l-0.99-1.04
				c-1.05,0.67-2.18,1.04-3.38,1.13c-1.21,0.09-2.18-0.25-2.92-1.04c-0.2-0.21-0.43-0.93-0.69-2.16c-0.26-1.23-0.39-2-0.38-2.33
				l0.84-0.3c0.62,0.99,1.1,1.67,1.46,2.04c0.62,0.66,1.33,1.15,2.13,1.52c0.81,0.36,1.55,0.51,2.27,0.44l-1.68-1.76
				c-0.46-0.48-0.82-0.96-1.07-1.42c-0.25-0.47-0.4-0.79-0.44-0.99c-0.03-0.2-0.05-0.35-0.03-0.44c0.03-0.2,0.25-0.66,0.66-1.38
				c0.4-0.71,0.69-1.14,0.84-1.27c0.53-0.44,1.19-0.81,1.96-1.1c0.77-0.3,1.6-0.44,2.47-0.41
				C233.69,277.54,234.38,277.82,234.9,278.36z M227.8,269.8l2.74-0.28l0.36,0.47c-0.41,1.21-1.02,2.58-1.83,4.1
				c-0.81,1.53-1.56,2.56-2.28,3.1c-0.22,0.17-0.84,0.33-1.88,0.48s-1.7,0.17-2.03,0.03c-0.14-0.07-0.47-0.38-1-0.96
				c-0.52-0.56-1.08-1.25-1.68-2.04c-1.2-1.59-1.14-2.88,0.18-3.88c0.44-0.33,0.97-0.61,1.6-0.84s1.09-0.36,1.39-0.39l0.32,0.81
				c-0.49,0.23-0.85,0.43-1.07,0.59c-0.21,0.15-0.35,0.31-0.43,0.46c-0.08,0.16-0.06,0.41,0.05,0.78c0.1,0.37,0.36,0.82,0.76,1.35
				c0.75,0.99,1.53,1.93,2.34,2.83C226.16,275,226.98,272.79,227.8,269.8z M224.97,264.25l-1.95,2.41l-0.36,0.2l-0.86-0.18
				c-0.71,0.61-1.27,1.01-1.63,1.16c-0.29,0.16-0.99,0.23-2.09,0.21c-1.1-0.02-1.81-0.12-2.11-0.29c-0.44-0.31-1-1.01-1.66-2.08
				l-5.31-10.54l-0.26-0.75c-0.56-1.58,0.1-2.91,1.98-4.02l-2.37-0.48c-0.28-0.33-0.51-0.78-0.7-1.35
				c-0.28-0.76-0.35-1.44-0.23-2.04c0.13-0.6,0.35-1.07,0.66-1.4c0.17-0.18,0.63-0.35,1.38-0.49c0.74-0.15,1.23-0.18,1.46-0.13
				c0.49,0.15,1.22,0.52,2.18,1.12c0.97,0.6,1.91,1.33,2.85,2.21l0.98-0.45l2.01,1.39l0.21,0.58l-6.3,2.23
				c-0.87,0.31-1.37,0.56-1.49,0.75c-0.12,0.2-0.05,0.64,0.21,1.36l5.29,10.64c0.78,1.27,1.35,2.1,1.68,2.47
				c0.48-0.43,1.02-0.93,1.61-1.54c0.59-0.61,1.07-1.1,1.43-1.51l0.53-0.56l2.54,0.6L224.97,264.25z"/>
			<path class="st0" d="M322.81,306.92l0.3-0.22c1.14-1.02,1.93-2.15,2.37-3.4c-0.98,0-2.2,0.2-3.66,0.6
				c-0.96,0.26-1.92,0.6-2.91,1.01l1.85,1.07C321.66,306.46,322.34,306.76,322.81,306.92z"/>
			<path class="st0" d="M241.67,291.5l0.36,0.09c1.5,0.3,2.88,0.25,4.14-0.13c-0.59-0.77-1.49-1.63-2.68-2.57
				c-0.78-0.61-1.63-1.19-2.56-1.73l0.25,2.13C241.35,290.3,241.51,291.03,241.67,291.5z"/>
			<path class="st0" d="M230.47,282.41l1.55,1.63l0.02-0.05c0.38-0.63,0.64-1.39,0.81-2.26c0.16-0.86,0.05-1.5-0.32-1.89
				c-0.36-0.38-0.89-0.54-1.6-0.49c-0.71,0.05-1.4,0.25-2.08,0.6C229,280.61,229.54,281.43,230.47,282.41z"/>
			<path class="st0" d="M283.07,308.92c0.03-0.36,0.12-1.37,0.26-3.05c-0.77,0.18-1.59,0.44-2.47,0.77c-0.89,0.33-1.55,0.66-2,0.97
				c0.52,0.58,1.33,0.97,2.44,1.15C281.74,308.82,282.33,308.88,283.07,308.92z"/>
			<path class="st0" d="M258.6,251.62c0.21-0.18,0.83-0.72,1.84-1.61c-0.54-0.32-1.16-0.62-1.85-0.92c-0.7-0.3-1.25-0.48-1.69-0.55
				c-0.02,0.62,0.23,1.29,0.77,2.01C257.88,250.85,258.19,251.2,258.6,251.62z"/>
			<path class="st0" d="M318.99,266.94c0.68-0.32,1.24-0.69,1.73-1.12c-0.63-0.76-1.72-1.33-3.25-1.74
				c-0.52,1.15-0.72,2.21-0.64,3.21C317.46,267.44,318.17,267.32,318.99,266.94z"/>
			<path class="st0" d="M336.08,253.1c0.49-0.17,1.02-0.63,1.57-1.36c0.41-0.55,0.74-1.08,0.98-1.61c-1.61-0.55-2.65-0.53-3.11,0.08
				c-0.26,0.35-0.32,0.78-0.18,1.33C335.47,252.1,335.71,252.62,336.08,253.1z"/>
			<path class="st0" d="M297.64,285.5c32.54,0,59.67-23.11,65.87-53.82h-33.2c-5.27,12.87-17.92,21.93-32.68,21.93
				s-27.41-9.06-32.68-21.93h-33.2C237.96,262.39,265.1,285.5,297.64,285.5z M264.9,266.37c-0.29,0.02-0.52,0.03-0.68,0.03
				l-0.25,0.01c-0.14-0.47-0.21-0.96-0.21-1.45c-0.22,0.05-0.46,0.09-0.7,0.12c-0.24,0.02-0.44,0.03-0.56,0.02h-0.21
				c-0.07-0.25-0.13-0.53-0.16-0.81c-0.03-0.28-0.05-0.49-0.03-0.66v-0.23c0.62-0.14,1.2-0.22,1.73-0.25
				c0.16,0.74,0.23,1.23,0.21,1.51c0.52-0.1,1-0.17,1.46-0.21c0.17,0.72,0.24,1.31,0.21,1.75
				C265.45,266.29,265.19,266.34,264.9,266.37z M327.16,269.34c-0.2,0.13-0.79,0.22-1.81,0.26c-1.01,0.05-1.65,0.05-1.88,0
				l-0.14-0.71c0.64-0.22,1.15-0.46,1.54-0.71c0.7-0.45,1.15-1.1,1.36-1.97c0.21-0.86,0.24-1.73,0.12-2.6l-3.78-2.09l0.23-2.26
				l0.4-0.25c0.05,0.03,0.09,0.08,0.17,0.14c0.08,0.06,0.22,0.17,0.43,0.35c0.21,0.17,0.41,0.33,0.61,0.49
				c0.2,0.16,0.41,0.35,0.66,0.55c0.23,0.21,0.45,0.39,0.62,0.54c0.18,0.15,0.33,0.3,0.47,0.44c0.14,0.14,0.22,0.22,0.24,0.26
				c0.26,0.3,0.71,1.02,1.33,2.21c0.35,0.67,0.51,1.62,0.47,2.85C328.19,268.08,327.84,268.91,327.16,269.34z M334.03,248.52
				c0.51-0.68,1.38-0.91,2.64-0.69c1.26,0.22,2.47,0.77,3.67,1.67c0.41,0.31,0.84,0.71,1.27,1.22c0.63,0.72,1.02,1.56,1.17,2.5
				c0.15,0.93-0.01,1.73-0.53,2.38c-0.14,0.18-0.68,0.46-1.61,0.83c-0.93,0.37-1.53,0.58-1.78,0.61l-0.35-0.63
				c0.7-0.62,1.16-1.09,1.42-1.43c0.46-0.62,0.75-1.29,0.85-2.01c0.1-0.74,0.03-1.39-0.22-1.99c-0.18-0.09-0.54-0.25-1.06-0.49
				l0.59,1.37c-0.07,0.43-0.32,0.92-0.75,1.49c-0.1,0.14-0.21,0.26-0.32,0.37c-0.12,0.12-0.22,0.2-0.32,0.28
				c-0.1,0.08-0.2,0.14-0.29,0.2s-0.18,0.09-0.29,0.13l-0.22,0.07c-0.05,0.01-0.1,0.02-0.17,0.03l-0.1,0.01
				c-0.16,0.02-0.54-0.09-1.13-0.32c-0.59-0.23-0.96-0.4-1.08-0.52c-0.41-0.36-0.79-0.82-1.13-1.39c-0.33-0.58-0.55-1.21-0.64-1.9
				C333.55,249.58,333.68,248.99,334.03,248.52z M330.19,253.13c0.05,0.02,0.12,0.06,0.2,0.1c0.09,0.05,0.25,0.13,0.48,0.25
				c0.23,0.13,0.46,0.25,0.69,0.37s0.47,0.25,0.75,0.41c0.26,0.15,0.51,0.29,0.71,0.4c0.21,0.12,0.38,0.23,0.54,0.33
				c0.16,0.12,0.25,0.18,0.29,0.22c0.31,0.23,0.91,0.86,1.77,1.89c0.47,0.59,0.82,1.49,1.04,2.7c0.21,1.21,0.03,2.1-0.54,2.66
				c-0.16,0.16-0.74,0.36-1.72,0.61c-0.98,0.25-1.59,0.37-1.83,0.37l-0.28-0.67c0.58-0.35,1.02-0.68,1.36-1
				c0.59-0.59,0.9-1.31,0.93-2.2c0.03-0.89-0.1-1.74-0.4-2.57l-4.11-1.3l-0.22-2.26L330.19,253.13z M326.38,250.58
				c0.81-0.07,1.44-0.06,1.9,0.03c0.05,0.25,0.07,0.54,0.07,0.86c0,0.32-0.02,0.56-0.05,0.75l-0.05,0.26
				c-0.29,0.05-0.6,0.07-0.91,0.06c-0.31-0.01-0.55-0.03-0.71-0.06l-0.24-0.03C326.32,251.78,326.32,251.15,326.38,250.58z
				 M322.76,251.94l0.38-0.31l6.26,7.71c0.02,0.02,0.13,0.25,0.31,0.71c0.2,0.45,0.39,0.93,0.6,1.45c0.2,0.51,0.31,0.78,0.33,0.83
				l-0.6,0.48c-4.72-5.5-7.26-8.46-7.63-8.87L322.76,251.94z M321.51,265.07c0.09,0.18,0.15,0.62,0.15,1.3
				c0.02,0.69,0,1.08-0.05,1.17c-0.35,0.63-0.99,1.17-1.93,1.62c-0.37,0.17-0.72,0.29-1.07,0.35s-0.63,0.06-0.84,0.02
				c-0.21-0.03-0.41-0.1-0.6-0.2c-0.18-0.09-0.31-0.17-0.38-0.23c-0.07-0.06-0.13-0.12-0.16-0.16c-0.07-0.09-0.22-0.39-0.43-0.91
				c-0.21-0.52-0.32-0.82-0.35-0.92c-0.13-0.86-0.03-1.98,0.25-3.35c-0.32-0.06-0.52-0.09-0.6-0.12l0.13-2.42l0.43-0.21
				c1.27,0.43,2.39,1,3.37,1.72C320.43,263.46,321.12,264.23,321.51,265.07z M313.44,258.14c0.78,0.2,1.3,0.37,1.54,0.52
				c0.17-0.56,0.35-1.07,0.54-1.51c0.78,0.2,1.37,0.4,1.77,0.63c-0.03,0.28-0.1,0.55-0.22,0.85c-0.1,0.29-0.21,0.52-0.29,0.68
				l-0.14,0.24c-0.53-0.12-1.02-0.28-1.49-0.51c-0.05,0.23-0.12,0.47-0.22,0.72c-0.09,0.24-0.18,0.44-0.25,0.56l-0.12,0.2
				c-0.29-0.05-0.59-0.13-0.87-0.23c-0.3-0.1-0.52-0.2-0.67-0.29l-0.22-0.12C312.99,259.25,313.2,258.66,313.44,258.14z
				 M293.87,270.54c0.16-0.51,0.31-0.86,0.44-1.07l0.67,0.2c-0.1,0.43-0.16,0.75-0.16,0.97c0,0.21,0.02,0.37,0.08,0.49
				c0.06,0.13,0.23,0.24,0.52,0.36c0.29,0.12,0.7,0.17,1.23,0.18c0.75,0.01,1.55,0,2.41-0.03l-1.93-5.13l1.39-1.56l0.47,0.01
				l1.49,5.15c0.24,0.77,0.44,1.24,0.61,1.4c0.17,0.17,0.51,0.25,1,0.26l2.1-0.41h0.01c1.06-0.2,1.76-0.37,2.12-0.51l-1.52-7.06
				l-0.79-1.37l1.61-2.21l0.53,0.18l0.17,0.94l1.27,1.62l-0.72,1.13l0.97,5.16c0.07,0.37-0.16,1.05-0.68,2.05
				c-0.52,1-0.91,1.63-1.17,1.89c-0.18,0.16-0.63,0.3-1.35,0.44l-2.81,0.46c-0.6-0.01-1.09-0.14-1.47-0.4
				c-0.38-0.26-0.71-0.71-0.98-1.35l-1.01,1.44c-0.08,0.05-0.39,0.09-0.92,0.15s-1.01,0.08-1.45,0.07c-1.6-0.02-2.38-0.7-2.36-2.03
				C293.62,271.52,293.71,271.05,293.87,270.54z M290.77,261.77l1.7-1.09l0.48,0.07l-1.4,9.83c0,0.02-0.1,0.26-0.31,0.71
				c-0.21,0.45-0.44,0.93-0.67,1.42s-0.36,0.76-0.38,0.81l-0.76-0.1C290.27,266.2,290.71,262.32,290.77,261.77z M285.55,261.17
				c0.44,0.68,0.72,1.24,0.86,1.69c-0.2,0.17-0.45,0.32-0.72,0.47c-0.28,0.15-0.51,0.25-0.68,0.31l-0.25,0.09
				c-0.18-0.23-0.35-0.49-0.48-0.77c-0.14-0.28-0.24-0.49-0.3-0.68l-0.08-0.23C284.47,261.69,285.02,261.39,285.55,261.17z
				 M262.89,245.07c0.05-0.3,0.09-0.53,0.14-0.69l0.09-0.25c0.68,0.05,1.3,0.13,1.85,0.26c-0.03,0.81-0.1,1.33-0.21,1.61
				c0.58,0.05,1.1,0.13,1.58,0.23c-0.05,0.81-0.14,1.43-0.28,1.86c-0.28,0.02-0.56,0-0.87-0.05c-0.31-0.05-0.55-0.09-0.72-0.15
				l-0.26-0.08c0-0.54,0.07-1.06,0.21-1.55c-0.24,0-0.49-0.02-0.76-0.07c-0.26-0.05-0.46-0.09-0.61-0.15l-0.21-0.07
				C262.82,245.68,262.84,245.38,262.89,245.07z M254.96,248.75c0.09-0.18,0.41-0.41,0.94-0.7c0.54-0.3,0.9-0.44,1.09-0.45
				c0.4,0,1.05,0.12,1.92,0.35c0.87,0.22,1.77,0.56,2.69,1.01l0.64-0.56l1.86,0.59l0.3,0.39l-4.29,3.18
				c-0.6,0.45-0.92,0.75-0.97,0.92c-0.05,0.17,0.12,0.51,0.47,0.99l0.26,0.36l4.77,4.6c0,0,1.04,0.75,1.43,0.94l2.3-1.8l1.61,0.15
				l0.23,0.32c-1.13,1.24-1.95,2.06-2.44,2.44c0.18,0.38,0.61,0.84,1.28,1.36l2.15,1.42c0.78,0.43,1.4,0.72,1.86,0.87l4.17-8.25
				l2-0.43l0.44,0.23l-4.17,7.65c-0.4,0.75-0.58,1.28-0.52,1.58c0.07,0.3,0.45,0.64,1.14,1.02l0.74,0.43l2.41,0.99
				c1.08,0.35,2.24,0.49,3.47,0.46c0.56-0.05,0.97-0.05,1.21-0.02c-0.69-0.47-1.29-1-1.81-1.6c-0.15-0.16-0.44-0.47-0.85-0.94
				c-0.41-0.46-0.7-0.77-0.86-0.91l-1.84,0.55l-0.25-0.58c0.17-0.15,0.4-0.33,0.68-0.54c0.28-0.22,0.71-0.48,1.31-0.79
				c0.6-0.32,1.04-0.44,1.31-0.35c0.09,0.03,0.18,0.08,0.28,0.15c0.09,0.07,0.21,0.17,0.35,0.31c0.14,0.14,0.25,0.28,0.37,0.4
				c0.1,0.13,0.28,0.31,0.49,0.56c0.22,0.25,0.41,0.47,0.58,0.64c0.52,0.56,1.08,1.05,1.69,1.44c0.61,0.39,1.09,0.64,1.43,0.75
				l1.49,0.47v0.43l-1.19,1.35l-1.38-0.46c-0.3-0.05-0.63-0.03-1.02,0.05c-0.38,0.08-0.85,0.2-1.42,0.36
				c-0.56,0.16-0.97,0.28-1.21,0.32c-0.91,0.2-1.65,0.3-2.22,0.31c-0.58,0.01-1.32-0.07-2.67-0.67l-2.19-1.04
				c-1.25-0.69-1.74-1.76-1.49-3.22c-1.12,0.7-1.8,1.06-2.05,1.06c-0.25,0.02-0.71-0.15-1.38-0.52l-2.47-1.62l-0.13-0.1
				c-0.97-0.76-1.45-1.73-1.45-2.91c-0.97,0.21-1.52,0.3-1.66,0.25c-0.26-0.06-0.66-0.29-1.16-0.68l-5.59-5.57
				c-0.79-1.07-0.61-2.24,0.58-3.53l-1.93,0.18c-0.29-0.2-0.56-0.48-0.85-0.86c-0.38-0.52-0.6-1.02-0.64-1.51
				C254.74,249.49,254.8,249.09,254.96,248.75z"/>
			<path class="st0" d="M439.36,269.02c3.28-1.92,6.71-4.51,9.99-7.71c4.79-4.64,8.48-9.75,10.72-14.41
				c-0.07,0.06-0.18,0.15-0.35,0.26c0.15-0.13,0.26-0.21,0.33-0.28c-6.04,2.34-13.65,8.5-18.84,14.77c0.63-2.9,1.23-5.81,1.65-8.75
				c0.09-0.56,0.17-1.13,0.26-1.69c7.53-5.34,15.77-15.67,18.69-23.76c-0.03,0.03-0.1,0.1-0.18,0.17c0.07-0.09,0.13-0.15,0.17-0.18
				c-5.92,2.92-13.18,9.91-17.84,16.68c0.06-0.47,0.09-0.96,0.15-1.42c0.16-1.7,0.21-3.43,0.32-5.13c0.09-1.39,0.15-2.79,0.16-4.18
				c7.17-6.41,14.63-18.87,16.48-27.84c-0.14,0.18-0.52,0.67-1.08,1.38c0.55-0.71,0.92-1.2,1.06-1.38
				c-6.02,4.27-12.82,13.57-16.42,21.81c-0.07-3.71-0.3-7.39-0.66-11.07c6.35-7.21,12.37-20.32,13.32-29.4
				c-0.1,0.16-0.35,0.55-0.7,1.12c0.33-0.56,0.58-0.94,0.68-1.12c-5.47,4.94-11.28,14.92-14,23.37c-0.64-4.59-1.49-9.14-2.57-13.64
				c5.03-7.26,9.21-20.09,9.1-28.51c-0.01,0.01-0.01,0.02-0.02,0.03c0.01-0.01,0.01-0.03,0.01-0.03
				c-4.56,5.32-8.92,15.58-10.35,23.68c-1.12-3.99-2.39-7.94-3.83-11.81c4.82-7.6,8.34-21.74,7.52-30.59
				c-0.01,0.02-0.01,0.06-0.02,0.08c0-0.02,0.01-0.06,0.01-0.08c-4.64,6.47-8.4,18.96-8.6,27.71c-0.16-0.39-0.35-0.79-0.51-1.19
				c-1.45-3.91-3.05-7.77-4.82-11.51c4.09-8.21,6.02-23.25,4.07-32.14c-0.01,0.06-0.03,0.13-0.07,0.24c0.02-0.1,0.03-0.18,0.06-0.24
				c-4.02,7.42-6.23,21.18-5.05,30.08c-1.78-3.63-3.72-7.18-5.79-10.65c2.54-7.99,2.3-21.77-0.62-29.42
				c-2.54,7.08-2.83,19.27-0.83,27.06c-2.27-3.64-4.68-7.16-7.24-10.57c1.69-8.62-0.16-22.85-4.07-30.38
				c-1.8,7.65-0.7,20.29,2.29,28.07c-3.08-3.91-6.38-7.61-9.84-11.08c1.15-8.77-1.74-22.97-6.24-30.23
				c-1.3,8.09,0.98,21.27,4.82,28.82c-3.35-3.27-6.86-6.33-10.54-9.22c0.02-8.85-4.7-22.54-10.14-29.02
				c0.02,0.08,0.06,0.21,0.09,0.36c-0.06-0.16-0.08-0.28-0.09-0.36c-0.21,8.25,3.79,20.98,8.63,27.85c-3.79-2.9-7.72-5.58-11.8-8.08
				c-1.15-8.31-7.7-20.57-13.86-25.7c0.01,0.01,0.01,0.02,0.01,0.05c-0.01-0.02-0.02-0.03-0.03-0.05
				c1.07,8.08,7.26,19.96,13.2,25.29c-5.17-3.13-10.57-5.95-16.15-8.47c-5.94-4.37-16.32-7.78-23.08-7.27c0,0,0,0,0.01,0.01
				c5.23,4.95,15.75,9.2,23.08,9.46c6.68,3.48,13.03,7.53,19.04,12.05c-6.92-2.77-18.09-3.27-24.71-0.87
				c1.21,0.25,14.88,2.96,26.5,2.23c0,0.01,0,0.01,0.01,0.01c-11.59,0.72-25.27-1.97-26.5-2.22c6.77,3.7,19.33,4.81,26.74,2.41
				c2.43,1.89,4.8,3.88,7.1,5.92c-7.17-2.27-17.79-2.41-24.22-0.1c0.36,0.07,1.75,0.35,3.83,0.7c-2.08-0.33-3.47-0.62-3.83-0.69
				c6.94,3.79,19.52,5.11,27.44,3.02c3.28,3.08,6.45,6.31,9.45,9.66c-7.63-3.31-19.42-4.66-26.72-2.79
				c0.17,0.06,0.53,0.16,1.07,0.32c-0.54-0.15-0.9-0.25-1.07-0.3c7.25,4.86,20.84,7.6,29.64,6.13c3.22,3.79,6.27,7.69,9.14,11.78
				c-7.53-4.02-19.61-6.3-27.27-4.86c0.06,0.02,0.1,0.03,0.18,0.08c-0.07-0.02-0.12-0.03-0.17-0.06c7,5.31,20.51,8.93,29.4,7.99
				c2.66,4.01,5.11,8.16,7.34,12.44c-7.3-5.47-20.05-9.74-28.37-9.22c6.71,6.49,20.53,12.04,29.85,12.09
				c2.27,4.55,4.27,9.22,6.03,14.02c-6.79-6.64-19.96-12.75-28.78-13.04c0.21,0.14,0.79,0.51,1.69,1.07
				c-0.9-0.55-1.49-0.92-1.69-1.06c6.28,7.25,20.09,14.27,29.49,15.03c1.76,5.02,3.25,10.16,4.44,15.42
				c-5.93-7.94-19.33-16.34-28.56-17.73v0.01c5.67,8.15,19.3,16.95,28.74,18.52c1.22,5.5,2.11,11.11,2.67,16.82
				c-5.61-8.96-17.54-19.2-26.53-22.33c0.03,0.03,0.08,0.09,0.13,0.16c-0.07-0.06-0.1-0.1-0.15-0.15
				c4.67,9.66,17.09,21.48,26.83,25.6c0.41,5.32,0.51,10.76,0.3,16.13c-4.51-10.05-15.99-22.61-25.14-26.97
				c0.02,0.03,0.08,0.1,0.12,0.18c-0.07-0.08-0.1-0.13-0.13-0.17c3.81,10.37,15.49,23.94,25.01,29.02
				c-0.38,4.86-1.01,9.68-1.89,14.46c-3.47-10.5-12.95-24-21.19-29.54c0.02,0.06,0.07,0.13,0.12,0.23c-0.07-0.08-0.1-0.16-0.13-0.21
				c2.45,10.67,12.05,25.54,20.73,32.15c-0.87,4.34-1.96,8.62-3.21,12.85c-2.72-10.58-10.62-24.3-18.01-30.48
				c0.06,0.12,0.13,0.33,0.25,0.62c-0.13-0.28-0.21-0.49-0.26-0.61c1.43,10.6,9.29,25.91,17.08,33.49
				c-0.89,2.76-1.85,5.49-2.91,8.17c-2.64-10.24-9.86-23.23-16.74-29.31c0.05,0.13,0.13,0.35,0.24,0.66
				c-0.13-0.3-0.21-0.52-0.25-0.64c1.14,10.2,8.1,24.94,15.34,32.78c-1.28,3-2.66,5.96-4.13,8.87c-0.38,0.74-0.79,1.47-1.17,2.2
				c-1.85-10.7-8.01-24.52-14.43-31.37c0.01,0.03,0.01,0.07,0.02,0.12c-0.02-0.03-0.02-0.08-0.03-0.1
				c0.26,10.39,6,25.96,12.58,34.74c-1.67,2.91-3.45,5.77-5.31,8.57c-1.45-10.62-6.54-24.06-12.21-31.15
				c-0.46,10.19,3.81,25.64,9.43,35.2c-2.46,3.37-5.03,6.68-7.72,9.86c0.78-12.34-2.14-29.11-7.19-38.56c0.01,0.05,0.01,0.09,0,0.16
				c0-0.06,0-0.12-0.01-0.15c-2.56,11.42-0.55,30.21,4.18,41.99c-0.1,0.12-0.21,0.24-0.32,0.36c-2.94,3.12-6,6.15-9.15,9.04
				c2.3-12.29,1.38-29.51-2.56-39.65c-0.12,1.43-1.09,13.18-0.83,26.75c-0.05-1.72-0.06-3.38-0.06-5.03
				c0-11.31,0.76-20.42,0.86-21.72c-3.9,11.05-4.06,30.12-0.68,42.52c-0.56,0.47-1.14,0.98-1.7,1.45c-1.22,1.06-2.56,2-3.82,3
				c-1.27,0.99-2.56,1.98-3.9,2.89l-0.46,0.33c3.58-12.18,4.25-29.9,1.14-40.62c-0.02,0.15-0.07,0.38-0.13,0.71
				c0.06-0.33,0.09-0.55,0.12-0.7c-4.94,10.72-6.7,30.02-4.27,42.8l-0.37,0.25l-4.1,2.58c-2.91,1.75-5.85,3.43-8.85,5.02
				c5.51-11.61,8.79-29.71,7.1-41.06c-0.01,0.06-0.03,0.12-0.07,0.2c0.01-0.08,0.03-0.13,0.06-0.18
				c-6.46,9.99-10.84,29.35-9.96,42.51c-1.78,0.89-3.6,1.75-5.43,2.53l-2.21,0.99l-2.24,0.89c-1.51,0.59-3,1.19-4.51,1.75
				c-3.07,1-6.11,2.13-9.23,2.92c-12.41,3.58-25.35,5.19-38.24,5.25c-12.9-0.08-25.83-1.67-38.24-5.25
				c-3.12-0.81-6.15-1.92-9.22-2.92c-1.52-0.55-3.02-1.16-4.52-1.75l-2.24-0.89l-2.21-0.99c-1.85-0.79-3.67-1.67-5.49-2.56
				c0.37-6.05-0.15-13.14-1.7-20.53c-1.84-8.71-4.8-16.37-8.22-21.95l-0.01-0.01c-0.82,6.68-0.41,15,1.43,23.7
				c1.39,6.54,3.4,12.47,5.74,17.37c-3-1.59-5.96-3.28-8.89-5.04l-4.11-2.57l-0.37-0.26c2.42-12.79,0.64-32.07-4.28-42.76
				c-3.12,10.71-2.46,28.4,1.13,40.57l-0.45-0.32c-1.35-0.9-2.62-1.89-3.9-2.89c-1.25-1-2.59-1.93-3.81-3
				c-0.59-0.47-1.15-0.98-1.72-1.47c3.38-12.4,3.21-31.45-0.69-42.48c0.17,2.03,1.9,23.1-0.07,41.84c-0.01,0-0.01,0-0.02-0.01
				c1.98-18.77,0.25-39.88,0.08-41.83c-3.94,10.14-4.87,27.34-2.57,39.63c-3.17-2.89-6.19-5.9-9.13-9.01
				c-0.12-0.13-0.23-0.25-0.33-0.38c4.72-11.78,6.73-30.55,4.17-41.96c-0.02,0.69-0.12,3.56-0.41,7.77
				c0.28-4.25,0.37-7.11,0.39-7.78c-5.04,9.45-7.98,26.17-7.18,38.54c-2.72-3.19-5.26-6.48-7.71-9.86
				c5.61-9.55,9.88-24.99,9.42-35.18c-0.01,0.1-0.06,0.26-0.1,0.47c0.03-0.23,0.08-0.38,0.09-0.49c-5.66,7.09-10.73,20.5-12.2,31.14
				c-1.85-2.81-3.63-5.65-5.29-8.57c6.56-8.77,12.3-24.31,12.56-34.72c-0.01,0.05-0.03,0.12-0.06,0.18c0.01-0.08,0.03-0.15,0.05-0.2
				c-6.4,6.85-12.57,20.63-14.42,31.32c-0.38-0.71-0.78-1.43-1.16-2.16c-1.47-2.91-2.85-5.87-4.13-8.89
				c7.21-7.83,14.19-22.57,15.33-32.76c0,0.01-0.01,0.02-0.02,0.03c0.01-0.02,0.01-0.03,0.01-0.06
				c-6.86,6.07-14.09,19.03-16.74,29.26c-1.05-2.67-2.01-5.4-2.9-8.14c7.79-7.61,15.63-22.91,17.07-33.49
				c-0.02,0.06-0.06,0.12-0.09,0.2c0.02-0.09,0.07-0.16,0.08-0.21c-7.39,6.18-15.3,19.86-18,30.46c-1.27-4.22-2.34-8.51-3.21-12.83
				c8.67-6.62,18.28-21.47,20.71-32.14v-0.01c-8.24,5.52-17.71,18.99-21.19,29.5c-0.86-4.78-1.5-9.59-1.88-14.43
				c9.52-5.09,21.19-18.63,24.99-29.01v-0.01c-9.14,4.37-20.64,16.91-25.14,26.97c-0.21-5.35-0.1-10.81,0.29-16.13
				c9.74-4.11,22.17-15.95,26.83-25.6v-0.01c-9.01,3.13-20.93,13.37-26.55,22.33c0.56-5.7,1.47-11.31,2.68-16.81
				c9.45-1.59,23.05-10.38,28.73-18.53c-0.16,0.13-0.51,0.41-1.04,0.82c0.53-0.43,0.87-0.71,1.04-0.83
				c-9.23,1.38-22.62,9.78-28.55,17.73c1.19-5.26,2.68-10.41,4.43-15.42c9.42-0.76,23.22-7.77,29.5-15.04
				c-8.81,0.29-21.97,6.39-28.78,13.04c1.75-4.79,3.78-9.47,6.02-14.02c9.32-0.06,23.14-5.59,29.85-12.09
				c-8.33-0.52-21.06,3.75-28.37,9.21c2.24-4.27,4.7-8.43,7.34-12.43c8.89,0.92,22.4-2.67,29.4-7.99
				c-1.35,0.51-15.76,5.81-28.98,7.39c0-0.01,0-0.01,0-0.01c13.26-1.6,27.68-6.91,28.99-7.41c-7.63-1.44-19.73,0.82-27.24,4.86
				c2.85-4.09,5.92-7.99,9.13-11.78c8.79,1.45,22.41-1.28,29.66-6.13c-0.17,0.05-0.55,0.16-1.09,0.31c0.55-0.16,0.92-0.28,1.09-0.32
				c-7.32-1.86-19.08-0.53-26.72,2.79c3-3.35,6.15-6.57,9.45-9.65c7.9,2.06,20.47,0.76,27.41-3.03c-6.43-2.3-17.05-2.16-24.19,0.09
				c2.3-2.04,4.67-4.02,7.09-5.92c7.41,2.39,19.97,1.3,26.74-2.41c-0.51,0.1-3.04,0.61-6.66,1.12c3.64-0.53,6.19-1.04,6.68-1.14
				c-6.59-2.37-17.79-1.9-24.7,0.87c6.08-4.58,12.5-8.67,19.27-12.17c7.06-0.63,16.65-4.7,21.57-9.36
				c-7.44-0.56-19.15,3.61-25.05,8.77c-4.43,2.12-8.75,4.44-12.93,6.98c5.94-5.34,12.13-17.21,13.2-25.29
				c-0.01,0.01-0.01,0.02-0.02,0.05c0-0.02,0-0.03,0.01-0.05c-6.15,5.13-12.71,17.39-13.85,25.7c-4.07,2.5-8.01,5.19-11.81,8.08
				c4.86-6.86,8.86-19.61,8.66-27.85c-0.01,0.03-0.02,0.1-0.06,0.17c0.01-0.08,0.02-0.15,0.03-0.18
				c-5.44,6.48-10.18,20.19-10.14,29.04c-3.66,2.89-7.19,5.95-10.54,9.22c3.87-7.54,6.12-20.74,4.85-28.82
				c-0.01,0.12-0.02,0.31-0.06,0.59c0.02-0.29,0.03-0.48,0.05-0.6c-4.51,7.25-7.39,21.47-6.24,30.24
				c-3.47,3.48-6.75,7.17-9.83,11.08c2.98-7.78,4.07-20.42,2.29-28.07c-3.91,7.53-5.75,21.77-4.06,30.38
				c-2.57,3.4-4.97,6.94-7.25,10.57c2-7.79,1.72-19.99-0.82-27.06c0,0.07,0.01,0.16,0.02,0.3c-0.02-0.13-0.02-0.23-0.03-0.3
				c-2.91,7.65-3.17,21.42-0.61,29.43c-2.07,3.45-4.02,7.01-5.81,10.64c1.17-8.9-1.04-22.68-5.04-30.08
				c0.02,0.13,0.09,0.39,0.17,0.77c-0.09-0.37-0.16-0.63-0.18-0.77c-1.95,8.86-0.01,23.94,4.07,32.14
				c-1.77,3.73-3.36,7.55-4.81,11.44c-0.17,0.43-0.36,0.83-0.52,1.25c-0.21-8.76-3.97-21.24-8.61-27.71
				c0.06,0.12,0.13,0.36,0.25,0.7c-0.13-0.35-0.21-0.59-0.26-0.7c-0.83,8.84,2.68,23.01,7.53,30.59c-1.44,3.88-2.73,7.82-3.84,11.8
				c-1.43-8.09-5.77-18.35-10.35-23.66v0.25c0.01,0.03,0.03,0.08,0.06,0.13c-0.02-0.03-0.05-0.07-0.06-0.1
				c-0.02,8.44,4.12,21.05,9.09,28.21c-1.08,4.5-1.92,9.05-2.56,13.64c-2.73-8.44-8.53-18.43-14.01-23.34
				c0.01,0.02,0.02,0.03,0.03,0.07c-0.01-0.02-0.03-0.03-0.06-0.07c0.94,9.07,6.98,22.18,13.31,29.4c-0.36,3.66-0.6,7.36-0.66,11.05
				c-3.63-8.23-10.41-17.52-16.42-21.79c0.06,0.07,0.15,0.2,0.28,0.36c-0.13-0.16-0.23-0.29-0.29-0.36
				c1.86,8.98,9.31,21.43,16.48,27.83c0.01,1.4,0.07,2.81,0.16,4.19c0.1,1.7,0.16,3.43,0.3,5.13c0.06,0.46,0.1,0.92,0.16,1.39
				c-4.67-6.76-11.94-13.74-17.84-16.65c0.09,0.09,0.28,0.26,0.53,0.51c-0.26-0.24-0.44-0.39-0.54-0.49
				c2.92,8.09,11.16,18.4,18.69,23.76c0.09,0.56,0.17,1.13,0.26,1.69c0.43,2.94,0.99,5.85,1.66,8.75
				c-5.2-6.27-12.8-12.43-18.85-14.77l0.01,0.02c3.53,7.87,12.68,17.5,20.71,22.15c0.37,1.31,0.74,2.6,1.14,3.9l0.91,2.83
				c-6.19-5.92-15.26-11.37-22.08-12.76c0.13,0.08,0.41,0.23,0.81,0.46c-0.39-0.21-0.69-0.37-0.82-0.45
				c4.7,7.37,15.46,15.57,24.21,18.69l0.37,0.97c0.56,1.62,1.27,3.2,1.96,4.78c0,0.01,0,0.02,0.01,0.02
				c-6.7-4.86-16.01-8.86-22.71-9.36c0.03,0.01,0.1,0.03,0.17,0.08c-0.08-0.02-0.15-0.06-0.18-0.07
				c5.34,6.57,16.54,13.14,25.4,15.24c1.58,3.29,3.28,6.53,5.11,9.67c-7.91-5.33-18.79-9.55-26.55-9.78
				c0.08,0.02,0.18,0.07,0.32,0.12c-0.15-0.03-0.25-0.08-0.33-0.1c6.55,7.5,20.22,14.72,30.67,16.47c1.47,2.24,3.02,4.45,4.62,6.62
				c-8.56-4.52-19.87-7.63-27.76-7.11c0.09,0.01,0.23,0.06,0.43,0.1c-0.2-0.03-0.35-0.08-0.44-0.09
				c7.46,7.15,22.24,13.26,33.23,14.04c1.67,2,3.38,3.94,5.16,5.85c-9.05-3.51-20.83-5.21-28.71-3.65c0.01,0,0.03,0,0.08,0.01h-0.09
				c8.21,6.17,23.68,10.35,34.66,9.67c3.26,3.12,6.63,6.1,10.14,8.92c-10.49-3.38-23.91-4.51-32.76-2.2
				c1.84,0.09,20.02,1,36.78,5.31c0.02,0.01,0.03,0.02,0.06,0.03c-16.82-4.33-35.07-5.24-36.84-5.32
				c9.91,6.6,28.48,10.22,40.93,8.25c1.62,1.14,3.27,2.23,4.94,3.3c2.05,1.3,4.16,2.53,6.26,3.73c-11.96-2.67-27.98-1.76-37.5,2.66
				c1.96-0.25,22.63-2.84,40.83-0.83c0.01,0.01,0.02,0.01,0.03,0.02c-18.23-2.03-38.98,0.59-40.86,0.82
				c6.03,2.5,13.9,3.99,22.49,3.93c7.79-0.03,14.97-1.38,20.73-3.54c10.09,5.12,20.76,9.06,31.76,11.76
				c-11.41,3.73-21.43,9.32-28.89,16.49c4.66,1.88,9.4,3.56,14.25,5.03c10.7-10.49,28.4-16.72,47.76-16.72
				c19.74,0,38.23,6.73,48.68,17.65c4.94-1.39,9.76-2.99,14.5-4.8c-7.22-7.37-17.04-13.18-28.33-17.09
				c11.82-2.69,23.32-6.83,34.13-12.32c5.75,2.16,12.94,3.49,20.73,3.54c8.59,0.07,16.46-1.43,22.5-3.93
				c-1.89-0.24-22.65-2.84-40.88-0.82c0.01-0.01,0.02-0.01,0.06-0.02c18.19-2.01,38.88,0.59,40.83,0.83
				c-6.01-2.58-13.86-4.17-22.43-4.22c-5.47-0.02-10.64,0.55-15.23,1.65c2.16-1.23,4.32-2.49,6.41-3.82
				c1.67-1.06,3.3-2.16,4.93-3.29c12.47,1.97,31.03-1.65,40.94-8.26c-1.77,0.09-20.03,1-36.84,5.33l0.03-0.03
				c16.77-4.31,34.96-5.21,36.79-5.31c-8.84-2.31-22.27-1.19-32.77,2.2c3.52-2.82,6.91-5.79,10.16-8.92
				c10.98,0.68,26.45-3.49,34.67-9.67h-0.09c0.03-0.01,0.07-0.01,0.08-0.01c-7.88-1.57-19.68,0.15-28.73,3.65
				c1.77-1.9,3.51-3.84,5.17-5.85c10.98-0.78,25.78-6.91,33.23-14.04c-0.09,0.02-0.23,0.06-0.39,0.09c0.17-0.06,0.29-0.08,0.38-0.1
				c-7.9-0.52-19.23,2.6-27.77,7.15c1.6-2.19,3.15-4.37,4.63-6.64c10.44-1.75,24.13-8.97,30.69-16.47
				c-0.02,0.01-0.06,0.02-0.09,0.02c0.02-0.02,0.06-0.02,0.08-0.03c-7.78,0.24-18.67,4.47-26.58,9.81c1.83-3.15,3.53-6.39,5.11-9.68
				c8.86-2.07,20.05-8.66,25.41-15.23c0,0-0.01,0-0.01-0.01c0-0.01,0-0.01,0.01-0.01c-6.72,0.47-16.05,4.51-22.72,9.37
				c0-0.01,0.01-0.02,0.01-0.03c0.69-1.58,1.39-3.15,1.96-4.78l0.37-0.97c8.75-3.12,19.52-11.31,24.21-18.69
				c-0.06,0.02-0.15,0.08-0.26,0.14c0.12-0.07,0.21-0.13,0.26-0.16c-6.83,1.39-15.9,6.85-22.09,12.78l0.91-2.84
				C438.65,271.67,439.01,270.35,439.36,269.02z M451.83,237.47c-1.31,1.42-2.68,2.95-4.06,4.55
				C449.13,240.42,450.51,238.9,451.83,237.47z M444.6,230.09c0.2-0.37,0.39-0.74,0.61-1.09c-0.2,0.37-0.41,0.76-0.61,1.13V230.09z
				 M444.31,211.21c-0.24,0.55-0.48,1.1-0.71,1.67c0,0-0.01-0.01-0.01-0.02C443.82,212.3,444.07,211.76,444.31,211.21z
				 M450.39,255.04c-3.11,2.82-6.59,6.17-9.9,9.75v-0.03C443.78,261.17,447.28,257.83,450.39,255.04z M443.1,184.22
				c-1.09,3.1-2.19,6.4-3.11,9.73c0,0,0-0.01-0.01-0.02C440.91,190.6,442,187.31,443.1,184.22z M396.36,99.96
				c0.08,0.69,0.17,1.37,0.26,2.05C396.52,101.28,396.43,100.59,396.36,99.96z M367.34,89.52c0.81,1.62,1.68,3.35,2.62,5.12
				C369.02,92.87,368.14,91.14,367.34,89.52z M372.25,119.61c0.83,0.1,1.7,0.22,2.62,0.33
				C373.96,119.84,373.08,119.72,372.25,119.61z M401.39,124.71c-0.01,0-0.01,0-0.01-0.01c-0.06-0.22-0.13-0.44-0.2-0.66
				C401.25,124.27,401.32,124.49,401.39,124.71z M395.99,132.95c2.39,0.33,4.83,0.59,7.23,0.72c0,0,0,0.01,0.01,0.01
				C400.84,133.55,398.4,133.29,395.99,132.95z M411.34,129.3c0.31,2.11,0.67,4.24,1.08,6.32
				C411.99,133.52,411.64,131.39,411.34,129.3z M414.21,148.57c0.13,0.02,0.26,0.03,0.4,0.05c0,0,0.01,0,0.01,0.01
				C414.49,148.61,414.35,148.59,414.21,148.57z M421.11,134.02c-0.05,2.33-0.06,4.85,0.01,7.45
				C421.04,138.86,421.06,136.34,421.11,134.02z M421.28,129.32c-0.06,1.02-0.09,2.13-0.14,3.31
				C421.18,131.46,421.22,130.35,421.28,129.32z M421.22,144.62c0.07,1.37,0.16,2.75,0.28,4.12
				C421.37,147.37,421.29,146,421.22,144.62z M421.67,150.55c-0.05-0.41-0.09-0.84-0.12-1.27c0.03,0.43,0.08,0.84,0.13,1.27H421.67z
				 M417.2,162.21c2.12,0.66,4.26,1.28,6.38,1.8c0,0.01,0,0.01,0.01,0.01C421.45,163.5,419.31,162.89,417.2,162.21z M428.69,163.38
				c0,0-0.01,0-0.01-0.01c0.02-0.81,0.07-1.62,0.12-2.44C428.75,161.75,428.72,162.56,428.69,163.38z M435.17,196.66
				c-4.35-1.96-8.79-4.49-12.86-7.07c4.06,2.56,8.52,5.09,12.86,7.06C435.17,196.64,435.17,196.64,435.17,196.66z M435.02,178.45
				c-0.01,0-0.01,0-0.01-0.01c0.54-3.19,1.19-6.22,1.9-9.1C436.22,172.23,435.57,175.26,435.02,178.45z M438.11,216.27
				c-4.06-2.92-8.08-6.32-11.73-9.67c3.65,3.31,7.68,6.72,11.73,9.65C438.11,216.25,438.11,216.26,438.11,216.27z M415.48,236.34
				c0.14,0.29,0.26,0.6,0.4,0.93C415.73,236.94,415.6,236.62,415.48,236.34z M412.99,248.94c0.15,0.35,0.3,0.74,0.47,1.15
				C413.28,249.67,413.13,249.28,412.99,248.94z M226.19,310.27c0.08,0.26,0.18,0.58,0.28,0.91
				C226.37,310.85,226.27,310.54,226.19,310.27z M229.03,320.2c0.25,0.92,0.51,1.89,0.76,2.89
				C229.52,322.08,229.27,321.12,229.03,320.2z M186.25,180.28c-0.38,0.3-0.79,0.62-1.25,0.96
				C185.45,180.88,185.87,180.55,186.25,180.28z M190.51,167.8c-0.52,0.32-1.07,0.64-1.68,0.99
				C189.44,168.43,190,168.1,190.51,167.8z M220.1,103.35c-0.45,0.69-0.91,1.35-1.38,2c-0.01,0-0.01,0-0.02,0.01
				C219.18,104.7,219.64,104.03,220.1,103.35z M207.24,111.11c-0.44,1.05-0.9,2.09-1.38,3.1c0,0-0.01,0-0.02,0.01
				C206.32,113.21,206.79,112.16,207.24,111.11z M219.78,128.58c-0.28,0.08-0.58,0.16-0.92,0.25
				C219.21,128.75,219.51,128.65,219.78,128.58z M214.2,130.06c-0.92,0.23-1.91,0.46-2.95,0.69
				C212.29,130.51,213.28,130.28,214.2,130.06z M199.48,96.08c-0.03,0.33-0.08,0.75-0.14,1.23
				C199.4,96.83,199.43,96.41,199.48,96.08z M199.17,97.85c-0.13,1.15-0.3,2.6-0.54,4.27C198.85,100.45,199.02,99,199.17,97.85z
				 M195.85,117.43c-0.56,2.45-1.22,4.9-1.96,7.26c-0.01,0.01-0.01,0.01-0.01,0.01C194.62,122.35,195.26,119.88,195.85,117.43z
				 M192.16,133.66c4.29-0.26,8.73-0.9,12.79-1.62c-4.06,0.75-8.5,1.38-12.8,1.63C192.15,133.67,192.16,133.67,192.16,133.66z
				 M184.88,122.56c-0.47,4.75-1.21,10.12-2.33,15.1c0,0.01-0.01,0.01-0.02,0.01C183.66,132.69,184.4,127.33,184.88,122.56z
				 M173.97,145.75c-0.09,1.61-0.21,3.22-0.38,4.8c0,0.01,0,0.01-0.01,0.02C173.74,148.99,173.88,147.37,173.97,145.75z M165.89,154
				c0.36,3.1,0.62,6.27,0.7,9.37C166.48,160.28,166.22,157.08,165.89,154z M164.81,180.19c0.21-0.06,0.43-0.13,0.63-0.21l-0.63,0.22
				V180.19z M160.09,196.64c3.49-1.56,7.04-3.51,10.42-5.52c-3.36,2.05-6.92,3.97-10.42,5.54
				C160.09,196.66,160.09,196.64,160.09,196.64z M157.15,216.24c2.16-1.54,4.31-3.22,6.39-4.96c-2.08,1.75-4.24,3.43-6.39,4.98
				C157.15,216.26,157.15,216.25,157.15,216.24z M150.66,230.11c-0.66-1.23-1.35-2.45-2.06-3.66c0.71,1.19,1.4,2.41,2.06,3.64
				C150.66,230.09,150.66,230.11,150.66,230.11z M151.66,212.86c-0.94-2.27-1.97-4.52-3-6.71c1.05,2.15,2.06,4.4,3.02,6.68
				C151.68,212.84,151.68,212.85,151.66,212.86z M176.47,213.36c-0.54,0.69-1.12,1.42-1.74,2.16
				C175.33,214.77,175.92,214.05,176.47,213.36z M170.96,220.11c-1.58,1.85-3.26,3.78-5.04,5.69
				C167.67,223.9,169.36,221.97,170.96,220.11z M156.94,234.64c2.03-1.77,4.02-3.7,5.96-5.66c-1.95,2-3.94,3.91-5.96,5.67V234.64z
				 M137.92,264.18c0.41,0.23,0.87,0.51,1.39,0.81C138.8,264.69,138.33,264.42,137.92,264.18z M150.2,271.9
				c1.88,1.28,3.82,2.68,5.75,4.17C154.02,274.6,152.08,273.2,150.2,271.9z M157.87,277.57c0.32,0.24,0.63,0.49,0.94,0.74l0.01,0.02
				C158.5,278.09,158.19,277.83,157.87,277.57z M173.96,230.67c-1.24,2.07-2.64,4.32-4.18,6.63
				C171.29,234.99,172.69,232.74,173.96,230.67z M159.22,251.59c1.27-1.49,2.51-3.03,3.73-4.6c-1.22,1.6-2.46,3.15-3.73,4.63
				C159.22,251.62,159.22,251.61,159.22,251.59z M163.28,267.35c0.55-0.81,1.09-1.62,1.65-2.45c1.62-2.51,3.15-5.11,4.63-7.69
				c-1.44,2.58-2.99,5.19-4.63,7.69c-0.54,0.83-1.08,1.67-1.65,2.47C163.28,267.36,163.28,267.36,163.28,267.35z M142.2,279.16
				c0.37,0.15,0.77,0.32,1.2,0.51C142.96,279.5,142.57,279.34,142.2,279.16z M160.35,288.08c1.05,0.6,2.09,1.22,3.12,1.85
				c0.01,0,0.01,0.01,0.01,0.02C162.45,289.31,161.4,288.68,160.35,288.08z M171.05,272.82c0.85-1.53,1.68-3.06,2.47-4.59
				C172.74,269.76,171.91,271.29,171.05,272.82c-1.14,2.05-2.33,4.06-3.57,6.02C168.7,276.87,169.9,274.86,171.05,272.82z
				 M145.45,293.92c0.31,0.12,0.67,0.24,1.05,0.39C146.12,294.17,145.76,294.04,145.45,293.92z M167.16,303.43
				c1.61,0.82,3.21,1.69,4.8,2.6c0,0.01,0.01,0.02,0.01,0.02C170.38,305.14,168.76,304.26,167.16,303.43z M187.56,259.62
				c-0.03,0.13-0.08,0.29-0.14,0.47C187.48,259.89,187.52,259.73,187.56,259.62z M174.5,293.33c2.29-4.5,4.37-9.3,6.17-13.83
				c-1.78,4.54-3.86,9.35-6.16,13.85C174.51,293.33,174.51,293.33,174.5,293.33z M191.57,275.64c-0.12,0.49-0.24,1.05-0.39,1.62
				C191.32,276.69,191.44,276.13,191.57,275.64z M188.45,287.61c-0.6,2.11-1.27,4.34-2,6.61
				C187.17,291.94,187.84,289.72,188.45,287.61z M180.99,319.37c0.1,0.03,0.2,0.08,0.3,0.13c0.01,0,0.01,0.01,0.02,0.02
				C181.2,319.47,181.1,319.41,180.99,319.37z M182.32,305.74c1.15-2.84,2.21-5.78,3.19-8.66c-0.97,2.89-2.03,5.81-3.18,8.67
				C182.33,305.75,182.33,305.74,182.32,305.74z M188.63,330.88c1.17,0.32,2.36,0.66,3.53,1.04c0.01,0.01,0.01,0.01,0.02,0.02
				C191.02,331.56,189.83,331.22,188.63,330.88z M193.07,319.25c0-0.01,0-0.01-0.01-0.01c0.58-2.56,1.08-5.18,1.54-7.78
				C194.15,314.06,193.64,316.69,193.07,319.25z M218.4,325.63c-0.1-1.39-0.21-2.76-0.32-4.11
				C218.19,322.86,218.31,324.24,218.4,325.63z M218.84,341.66l-0.01-0.01c0.1-5.33-0.08-10.82-0.43-16
				C218.76,330.84,218.95,336.35,218.84,341.66z M235.09,351.14c-0.41-3.9-1.02-7.86-1.72-11.73c0.71,3.88,1.32,7.84,1.74,11.74
				C235.11,351.14,235.11,351.14,235.09,351.14z M360.16,351.15h-0.01c0.38-3.58,0.92-7.24,1.56-10.82
				C361.09,343.92,360.55,347.57,360.16,351.15z M376.45,341.66l-0.01,0.01c-0.17-7.5,0.29-15.35,0.94-22.24
				C376.76,326.32,376.29,334.17,376.45,341.66z M378.15,312.11c0.1-0.96,0.23-1.85,0.35-2.73
				C378.39,310.24,378.28,311.15,378.15,312.11z M406.61,330.88c-1.19,0.35-2.38,0.69-3.56,1.06c0.01,0,0.02-0.01,0.03-0.02
				C404.26,331.55,405.43,331.19,406.61,330.88z M404.86,280.31c0.23,0.87,0.47,1.81,0.72,2.77
				C405.33,282.12,405.07,281.19,404.86,280.31z M412.95,305.79c-1.67-4.14-3.17-8.45-4.44-12.56c1.31,4.1,2.79,8.41,4.45,12.53
				C412.96,305.76,412.96,305.76,412.95,305.79z M420.77,293.35c-0.81-1.59-1.6-3.21-2.33-4.86c0.76,1.62,1.53,3.26,2.34,4.82
				C420.77,293.34,420.77,293.34,420.77,293.35z M450.63,293.64c-0.86,0.31-2.2,0.81-3.88,1.45
				C448.43,294.43,449.77,293.93,450.63,293.64z M430.5,302.21c-2.39,1.2-4.82,2.49-7.22,3.87c0,0,0.01-0.01,0.01-0.02
				C425.68,304.68,428.11,303.39,430.5,302.21z M429.47,263.52c0.84,1.31,1.68,2.6,2.54,3.87c0,0.01,0,0.01,0,0.02
				C431.13,266.14,430.29,264.84,429.47,263.52z M435.24,287.9c-1.17,0.68-2.34,1.38-3.5,2.1c0-0.01,0.01-0.01,0.01-0.02
				C432.91,289.26,434.08,288.55,435.24,287.9z M453.9,266.2c-0.56,0.35-1.16,0.71-1.8,1.12C452.74,266.9,453.34,266.55,453.9,266.2
				z M445.19,271.82c-2.85,1.97-5.87,4.18-8.75,6.54v-0.02C439.32,275.99,442.33,273.78,445.19,271.82z"/>
			<path class="st0" d="M145.54,168.23c0.02,0.05,0.05,0.1,0.08,0.17c0-0.01,0-0.01,0-0.02
				C145.59,168.32,145.56,168.27,145.54,168.23z"/>
		</g>
	</g>
</g>
</svg>
